<svg id="Laag_1" data-name="Laag 1" xmlns="http://www.w3.org/2000/svg" viewBox="0 0 761.84 521.86"><defs><style>.cls-1{fill:#050506;}.cls-2{fill:#fefefe;}.cls-3{fill:#f3451d;}.cls-4{fill:none;}</style></defs><title>Naamloos2-1</title><path class="cls-1" d="M194.49,586.77c-.44-.8-3.25-1.42-4.08-2-.41-.64-3.17-1.44-4-2.08-1.53-2.45-4.42-3.27-6.37-5.19-1.64-1.6-4.43-2.49-4-5.6,5.41,3.14,9.93,7.57,15.54,10.46,8,4.12,16,7.87,25.89,8.78-2.37-2.69-4.34-4.69-6-6.9-4.19-5.47-8.47-10.91-10.62-17.62,4.5-7.31,12.56-10.78,18.74-7.5,5.66,3,11.75,4.66,17.74,6.57,12.25,3.92,25.06,3.25,36.88-.37,13.94-4.27,28.08-9,40-18.25l-3,6.74c3.51.09,3.49,0,6.13-1.43a93.11,93.11,0,0,0,23.89-19c11.11-12.26,20.73-25.39,23.38-42.35a7,7,0,0,0,3.39-4.63c2.25-9.31,1.1-18.5-.62-27.7a17.83,17.83,0,0,0-4.4-8.28,93.5,93.5,0,0,0-22.65-18.67,14,14,0,0,0-9.53-2.26c-10.19,1.55-18-1.16-24.49-10.08-11.78-16.12-27-28.32-46-35.47-10.65-4-21.13-1.45-25.11,6.37a41,41,0,0,0-4.34,19.15c0,4.28,1.68,8.43,1,12.63-5.26-1.57-10.27-3.38-15.43-4.5-6.4-1.39-12.6-1.12-17.31,4.56s-6,12.54-5.78,19.6c.2,6.82,1.1,13.61,3.9,20,.34.79.78,1.63.27,2.35-.74,1-1.77.52-2.68.1-3.64-1.69-7.53-1.09-11.32-1.13-13.6-.14-20.42,6.21-20.87,19.68-.36,10.87,4.45,19.86,11.06,28,1.25,1.55,3.29,3,5.19,2.19,2.11-.85,1.75-3.34,1.68-5.33-.11-3.5-.44-7-.34-10.48.38-13.53,10.11-21.85,23.2-20,6.36.92,7.84-.6,6.92-7a45.9,45.9,0,0,0-1.19-4.79c-2.3-9.24-1.45-21.16,7.77-27.33,5.64-3.78,11.42-4.68,17.85-2.28,2.38.89,5.32,2.11,7.44-.36,1.93-2.26.69-4.82.06-7.49-2-8.57-3.3-17.23-.07-25.91,2.49-6.7,10.22-12.09,17.41-11.67,3.9.22,7.18,1.55,8.28,5.85-10.13-2.85-17.36-1.25-20.69,5.46-4.43,8.89-5.92,18.3-1.8,27.84,4.47,10.32,12,18.21,20.57,25.19,13,10.67,27.67,18,44.54,20.38,0,4.34,2.91,7.72,4,11.67,2.51,9.23,2.54,18.69,2.31,28.19-.21,8.32-3.63,15-9.39,20.75a10,10,0,0,1-10.07,2.82,164.86,164.86,0,0,1-24.59-8.08,88,88,0,0,1-17.33-9.81c-1.21-.87-4.56-3.12-4.47,0,.1,3.62,1.76,7.82,5.95,9.72,11,5,20.59,12.79,32.67,15.48,2.44.54,2.71,2.37.76,4a26.59,26.59,0,0,1-4.11,2.76c-7.22,4-15,4.95-23.15,4.34-4.95-.38-9.87-.58-13.85,3.22-6.06-6.31-12-13-15.81-20.7a81.93,81.93,0,0,1-8.88-34.85c-.19-10.53-6.3-16.81-14.71-21.35-11.52-6.22-22.24-2.43-25.53,9.11s-2,22.67,5.95,32.34c2.63,3.19,5.36,6.31,8,9.46-1.12,1.33-2.67.92-4.1,1-4.49-7.62-10.84-12.41-19.9-13.06-3.17-7.46-14.7-8.54-20.07-2.18-5.79,6.84-5.07,14-1.64,21.29,1.39,3,2.44,6.94,7.28,6,1.06,7.07,6.17,12,9.43,17.92-2.19,1.64-2.91-.74-3.87-1.65-4.26-4-8.34-8.25-12.49-12.41-.49-.59-1.07-2.8-1.74-3.13-4.85-7.12-6-15.14-5-23.4.65-5.64,4.78-8.94,9.69-11.13a26.32,26.32,0,0,1,5.76-1.61c6.94-1.34,6.76-1.25,4.58-7.95-3-9.08-6.83-17.83-6.31-27.91.67-13.08,8.33-21,21.56-20.57,9.85.28,10,.1,7.3-9.57-3.27-11.76,2.65-26.58,13.12-33a9.48,9.48,0,0,1,5.25-1.27c4.5,0,9.05-.41,13.48.14,4.93.62,5.75-1.61,5.43-5.67-.51-6.38-1.47-12.67,1.91-18.86a25.78,25.78,0,0,1,6.41-8.08c5.13-4.14,7.84-9.38,7.49-16-.14-2.51.94-4.52,1.76-6.66,4.67-12.11,9.84-23.93,19.33-33.24,4.25-4.17,7.62-9.21,13.18-12.08a11.7,11.7,0,0,0,5.62-7.43c2.76-10.71,9.72-18.62,16.54-26.83,7.08-8.5,14.28-16.6,24.06-22.19,4-2.31,6.87-6.27,9.6-10.07s5.56-7.51,9.49-10.16c1.76-1.18,2.54-3,3.38-4.73A205.1,205.1,0,0,1,367,193.65c1.5-1.94,1-3-.29-4.67-7.81-10.09-13.57-21.28-16-33.85-1.75-9.18-2.47-18.42-.95-27.89,1-6.09,1.67-12.18,3.19-18.18,2.22-8.73,5.37-10.74,14.28-10.45,11.66.38,22.83,3.08,34.14,5.41,9.81,2,19.77,3.39,29.68,5,6.29,1,11.76-2.32,17.26-4.27,16.4-5.81,33.07-10.73,49.79-15.44,5.35-1.5,6.88-5.85,9.68-9.1,2.31-2.67,3.4-3.39,6.5-1.56,6.68,3.92,7.57,4,11.84-2.48,3.1-4.71,5.15-4.51,8.09-.44a5.21,5.21,0,0,0,.7.71c2.14,2.1,4.06,5.47,6.49,5.9,2.08.37,4.69-2.76,7.19-4.14,1.62-.89,3-1.84,4.58.95,3.79,6.77,9.74,10.26,17.49,12.45,16.81,4.75,33.6,9.78,49.86,16.29,6.56,2.63,13,.29,19.34-.35,15.3-1.54,30-6.67,45.24-8.64,4.77-.61,9.37-1.38,14,.21a7.78,7.78,0,0,1,5.38,5.66c3.11,10.83,5.67,21.83,5.43,33.06a84.28,84.28,0,0,1-17.23,50c-1,1.39-1.26,1.83-.09,3.37,6.38,8.41,13.52,16.21,19.33,25.09,9.4,14.33,18.33,29.22,21.33,46,2.13,11.94,10.33,18.31,17,26.26,4,4.72,8.49,8.92,11.06,14.63,1.63,3.61,5.21,5.61,7.09,9a33.59,33.59,0,0,1,4.48,17.18c-.05,3.38.33,6.68,2.72,9.36,6.78,7.61,10.64,16.64,13.49,26.32,1,3.54-.57,8.59,2.35,10.25,2.27,1.29,6.15-2.07,9.7-2.47,5.19-.59,10.32-2.85,14.5,2.64,3.16,4.15,7.83,6.74,10,12.11a30.89,30.89,0,0,1,1.8,16.88c-.87,6.24-.27,6.86,5.92,6.77,2.83-.05,5.66,0,8.5,0,12.51,0,23.41,11,23.4,23.75,0,4.79.07,9.57-1.54,14.3-1.67,4.88-.4,6.15,4.79,6.09,4.14-.05,8.25-.54,12.34,1,7.75,3,11.83,9.18,12.51,17.5.89,10.85-2.52,20.6-6.28,30.39-2.48,6.47-2.35,6.12,4.14,7.21,16.45,2.75,18.62,12.37,14.8,28-2.43,10-9.35,17.66-16.64,24.89s-14,14.73-23.22,19.41c-7.91,4-15.44,9-24.94,8.77-3.4-.07-6.58,2.21-10.22,1.92-2.81-.22-4.21-.85-2.46-3.93a16.93,16.93,0,0,1,5-5.81c4.73-3.42,7.9-8.49,11.38-13.08,2.8-3.7-.81-8.5-6.07-8.53a15.49,15.49,0,0,0-7.69,2c-17.71,10.08-36.21,9-55.24,4.83-7.2-1.59-12.92-6-19.72-8.17-2.58-.82-5-1.63-7.73-1.47-13.7.79-25.18-4.36-34.12-14.35-5.08-5.67-12-9-16.82-14.73-8.57-10.1-16-20.81-16.67-34.73-.18-4-1.36-6.75-5.32-8.61-6.74-3.18-13.54-5.3-21.09-5.34A281.25,281.25,0,0,0,616,484.65c-1.75.23-3,.58-4,2.25-5,8.36-12.69,13.66-21.06,18.12-.85.46-2,.64-2.55,1.32-3.16,3.76-3.32.83-3.35-1.55s-1-4.72-1.7-7c-.46-1.52-1.54-3.22-2.68-3.3-1.55-.09-2.67,1.74-3.26,3.21a51.24,51.24,0,0,1-4.78,9.39c-3,4.54-7.45,7.28-11.18,10.76-3.64-6.19-5-13.29-9.1-19.22-1.38-2-1.76-1.54-3.14-.4-2,1.64-2.72,4-4,6.09a49.79,49.79,0,0,1-14.56,15.29c-9.86-5.65-14.77-15.68-20.9-25.16-5.19,6.22-6.93,13.54-11.17,19.63-5.92-6.36-14-10.62-16.85-19.52-.3-.94-1.55-1.58-2.35-2.36-.78.85-2,1.59-2.24,2.57-.63,2.57-1.4,5.67-3.47,6.63s-3.86-2.14-6-3.1c-8.25-3.7-15.67-8.5-21-16-.63-.89-2.12-2.23-2.54-2-5.62,2.79-10.78-1.11-16.18-.92a87.17,87.17,0,0,0-31.91,7.41c-7.12,3.09-13.87,7.43-22.08,7-1.93-.1-1.65,1.21-1.73,2.23a51.54,51.54,0,0,1-19.41,36.91c-9.64,7.7-16.56,18.84-28.88,23.24-5.47,2-10.69,4.75-16.74,4-6.53-.83-12.29,1.67-17.46,4.87-5.62,3.47-11.76,4.45-17.88,5.89-17.47,4.12-34.32,3-50.29-5.9a19.3,19.3,0,0,0-4.75-1.47c-4-1-7.41-.08-9.31,3.78s.43,6.35,3.24,8.92c4.51,4.11,8.7,8.58,12.78,13.12.8.88,2.33,2.26,1.29,4-.87,1.43-2.45,1-3.65.82-6-1-12-2.09-17.93-3.15C201.5,590.09,195.6,587.42,194.49,586.77Zm379.39-438.7.09.07c-4-5.63-9.94-7.44-16.26-8.45-3.91-.62-8.81-1.91-10.86,2.21-1.77,3.57,2.19,6.44,4.55,9.14.71,1.78,3.36,3.09,1.78,5.4-.93,1.36-2-1.16-3.26-.48-.81-.8-1.58-1.67-2.44-2.41-4.49-3.88-6.6-3.37-8.55,2.16-1.28,3.63-2.46,7.63-1.44,11.22,3,10.55-1.9,18.29-8,25.81-8.37-10.19-8.92-12.09-8.17-25.22a37.37,37.37,0,0,0-.55-8.9c-.53-2.88-1.06-6.38-4.26-7.39s-4.75,2.29-6.8,4.07c-2-1.16-3.14,3.63-4.89,1.06-1.43-2.13,1.48-3.42,2.38-5.11a11,11,0,0,1,.84-1.18c2.53-2.19,5.48-4.83,4.07-8.19-1.5-3.54-5.63-2.86-8.85-2.52-7.59.78-14.44,3.27-19.42,9.5a17.54,17.54,0,0,1-6,3.62,20.79,20.79,0,0,1-14.45-.87c4.26-6.49,9.42-11,16.85-12.21A26.48,26.48,0,0,0,497,129.71c3.59-4.29,8.28-5.26,13.56-3.31,3.12,1.16,6.24,2.33,9.39,3.38,1.37.46,3,1.19,3.93-.71,1.43-2.87,3.32-5.65,2.74-9.49-3,1.35-5.7,2.69-8.48,3.73-3,1.12-6.1,1.79-9.1-.14-10.12-6.48-15.7-6.41-25.3.92-7.54,5.76-14.87,11.79-22.15,17.88-3.47,2.89-7.17,4.7-11.75,4.65-8.58-.09-14.47,4.3-18.47,11.52-1.77,3.19-3.16,6.59-4.78,9.87-.49,1-.39,2.76-1.83,2.68-5.49-.31-9.91,4.16-15.46,3.32a3.17,3.17,0,0,0-3,1.34c-3,3.23-7,5.05-10.85,7-4.69-4.7-9.85-9-13.33-14.76l1.16-.85c5.11,1.26,10.22,2.19,15.42-.37-12-10.31-15.39-15.21-15.31-21.83,9.11,8.35,19.46,13.85,32.05,14.42-2.78-3.26-6.78-5.2-8.73-9.42,11.65,1.28,15.78.44,21.23-4.38-13-3.43-24.2-10.48-36.15-15.86-6.74-3-13.74-5-21.24-4.78-3.26.09-5.16,1.32-6,4.69-2,8.38-2.73,16.73-.73,25.21a89.46,89.46,0,0,0,18.39,36.67c-16.93,17.64-28.17,38.58-36.3,61.39,8.67-3.4,16.05-8.71,24.83-11-13.85,22.62-21.75,47-22.21,74.37l22.66-11.49c-6.34,18.24-6.7,36.21-2.94,54.53,2.31-.65,3.19-2.62,4.7-3.82,3.53-2.81,5.73-7.11,10.07-9L383,346c1.19,4.37.63,8.9,1.09,13.34a78.46,78.46,0,0,0,12.36,35.74c3.33-6.68,7.87-11.92,13.1-17,5.39,12,10,24.18,18.86,34.16,2.54-2.95,4.86-5.76,7.3-8.46,4.46-5,9.1-9.67,15-13.05,4.1-2.34,6.46-1.19,8.2,2.8a37.22,37.22,0,0,1,2.61,19.06c-.86,8.24-4.26,15.69-7,23.34-4.77,13.1-2.45,25.57,3.44,37.65a27,27,0,0,0,9.86,11c1.87,1.2,3.28,1.83,4.52-1a29.36,29.36,0,0,1,6.51-8.79c5.3-5.31,5.22-5.27,7.56,1.74s4.15,14.21,9.45,20.58c2.83-8.89,9.08-14.78,14.09-21.93,5.36,8.1,10.93,15.73,16.82,23.14,2,2.55,3.19,2.44,5.13,0,6-7.47,11.59-15.19,17-23.4C555,481.49,559.06,489,563.12,497c6.22-8.25,7.8-17.62,11.21-26.64,5,3.63,9.31,7.57,11.86,12.91,1.41,2.95,2.55,2.6,4.73,1,7.61-5.43,11.33-13.28,14-21.85,4-13,.38-25.39-3-37.75-2.56-9.37-3.24-18.72-.58-28.08,2.29-8.05,5.06-8.94,12-4.27,6.74,4.5,12,10.57,16.92,16.87,2.48,3.18,3.62,2.58,5.52-.42a114.78,114.78,0,0,0,9-16.68c2.84-6.72,5.7-13.43,8.79-20.73,4,8.13,6.81,16,11.7,23.39,9.64-15.43,12.73-31.95,12.8-50,5.23,5,9.52,9.76,15.24,13.74,1.54-9.56,2.76-18.54,1.88-27.74a194.44,194.44,0,0,0-5-27.48c8.12,3.6,15.94,5.89,23.09,12.35-1.93-26.51-7.1-50.4-22.19-71.25-.48-3.38,1.37-2.44,3.21-1.79,7.2,2.54,13.45,7,20.59,10.4a18.71,18.71,0,0,0-1.49-10.05c-7.86-20.14-19-38-36.3-51.51a42.37,42.37,0,0,0,7.75-10.32c9.44-16.07,15.3-32.85,10.12-51.83-.67-2.47-1.59-3.85-4.24-4.66A30.51,30.51,0,0,0,667,126.79c-11.91,6.06-22,15.34-35.79,19.09,7,5.38,14.27,5,21.95,4.08-2.48,4.26-6.34,6.38-10.27,10.1a54.17,54.17,0,0,0,34.15-16c-.76,5.3-3,9.29-5.66,13.08s-6.8,6.51-10.71,9.73c6,2.59,11.46,1.7,16.88-.33a6.14,6.14,0,0,0,.51.51c-3.16,6.37-8.84,10.56-13.46,15.67-7.11-3-12.68-9-21.09-9.74-7.33-.64-12.12-4.78-14.85-12.36-3.2-8.9-10.17-14.26-20.29-14.08-4.27.08-7.59-1.83-10.8-4.39C589.15,135.42,581.23,128,572.2,122c-6.26-4.13-13.3-5.57-19.58-.79-5,3.77-9.28,3.52-14.26,1.09-1.9-.93-3.85-1.76-5.92-2.7-.1,9.42,2.78,11.6,10.89,8.6a7,7,0,0,0,.94-.33c8.2-4.23,15-2.62,20.59,4.73a15,15,0,0,0,10.51,5.93,30,30,0,0,1,18.38,10.17c2.26,2.5,1.5,3.45-1.38,4.09-3.48.77-6.94.49-10.42.22l-6.73-4A1.24,1.24,0,0,0,573.88,148.07Zm304.8,373c-8,2.66-15.78,5.65-19.79,14-1.43-.07-3,.34-4.1-1l3.36-3.66c8.42-9.14,13.72-19.27,12-32.36-1.37-10.11-6.11-16.54-14.42-17.68-11.4-1.56-26.14,10.16-26.85,21.69-1.35,22.14-8.27,41.74-25.12,57-4-1.47-8-2.76-12.45-2.33a91.83,91.83,0,0,1-12-.06c-5.88-.21-10.75-3.32-15.54-6.15-3.53-2.08-3.09-3.93.86-5.2a105.21,105.21,0,0,0,13.85-5.43c5.4-2.63,9.95-6.8,15.5-8.86,3.92-1.45,6.15-3.75,7.28-7.39.4-1.3,2.15-2.77.71-4.06s-3.23,0-4.45,1c-12,9.15-26.14,13.54-40.41,17.52-3.24.9-6.64,1.4-9.55-.94-4.47-3.6-8.21-7.91-9.68-13.57-2.63-10.11-2-20.32-.56-30.59.86-6.33,4.57-11.69,5.27-18a11,11,0,0,0,2,0c22.16-4.7,40.7-15.58,55.25-32.95,7.36-8.79,11.95-18.43,9.4-30.63-3-14.42-10-19.21-24-15.26,1-3.81,3.75-5.29,7.3-5.77,7-.94,15.7,4.55,18.28,11.12,3.34,8.5,1.79,17,.37,25.49-.49,2.9-2.67,5.89-.2,8.39,2.63,2.68,5.9.76,8.86-.13a18.25,18.25,0,0,1,16,2.48c9.53,6.21,10.92,18.39,8,27.65-3.14,10-1.7,12.51,8.33,11.18,8-1.05,18.1,6.41,19.82,14.26,1.35,6.14.56,12.24.52,18.37,0,4.33,1.53,5.09,5.18,2.86a10.8,10.8,0,0,0,2.87-2.69c4.13-5.48,7.72-11.48,9-18.14,1.53-7.93,2.45-16.05-4.43-22.84-7.58-7.49-16.5-5.38-25.36-4.72-1.39.1-2.86,2-4.09.44s.59-2.74,1-4.12c2.58-9.36,4.4-18.66,1.83-28.46-3-11.48-10.68-16.62-22.24-13.85-5,1.21-10,2.92-15.37,4.53,1-7.9,1.87-15.43.45-23.1-1.71-9.2-6.8-15.39-15.25-16.82-4.69-.79-9.25.21-13.69,1.85-19.42,7.14-34.49,20.06-46.48,36.43-6,8.2-13.51,10.15-22.58,9a16.76,16.76,0,0,0-11.39,2.63,98.46,98.46,0,0,0-20.82,17c-3,3.32-5.22,6.91-5.82,11.38-.58,4.29-1.74,8.63-1.46,12.87.39,6.05-1,12.8,4.66,17.52a60.17,60.17,0,0,0,1.38,6.29c7.78,23.49,23.22,40.78,43.85,53.78,2.13,1.34,4.68,4.38,6.92,2.52s-1.75-4.08-1.74-6.51c5.18,3.44,10.14,7,16.2,9.17,13.08,4.63,25.27,10.88,39.92,11.5,13,.56,24.42-2.85,35.78-7.32,9.69-3.82,15.93-2.7,21.41,6.2a10.38,10.38,0,0,1-1.73,4.52,99.41,99.41,0,0,1-15.1,20.09c2-.21,3-.22,4-.43a81,81,0,0,0,38.52-20.41c6.93-6.43,13.14-13.61,15.34-23.29,1.85.17,3.42.14,4.84-1.61a20.69,20.69,0,0,0,.87-25.58C894.44,513.71,882.6,514.4,878.68,521.05ZM720.94,374.85c-9.9,2.4-15.19,8.83-15.84,19.62-6.31-5.53-9.18-12.26-13.06-18.25-.75-1.16-1.83-2.92-2.55-2.72a4,4,0,0,0-2.55,3.31c-.84,4.79-1.69,9.6-3,14.28-3.61,13.18-9,25.36-20.55,33.58-3.2-7.07-3.13-15.1-8-22.27-6.11,14.5-12.58,28.16-22.07,40.93-1.8-9.49-6.51-17.18-10.72-25-3.05-5.69-6.48-11.22-11.36-15.78-2.62-2.45-4.45-.9-4.85.86-1.55,6.82-3.5,13.81.14,20.64,2.72,5.1,5.48,10.19,8.35,15.22,6.2,10.85,7.61,22.36,3.77,34.12-1.58,4.84.15,4.84,3.59,4.06,8.24-1.89,16.32-1.49,24.68,0,10.15,1.81,20.72.79,31.18,4.62-1.68-7.42,0-13.78.62-20.22a28.46,28.46,0,0,1,8.94-18.43c6.88-6.73,13.89-13.29,22.26-18.19,6-2.83,12.59-2.65,19-3.1,4.3-.3,7.92-1.2,10.47-5.35a72,72,0,0,1,8.78-11.25,126.73,126.73,0,0,1,28.74-23.25c3.21-1.88,3.59-3.55,2.42-6.61-2.33-6-4.47-12.1-4.19-18.82.23-5.34-2.54-9.16-7.64-11.07s-11.19-.69-14.49,3.64C744.45,360.64,732.8,367.85,720.94,374.85ZM348,428.54c6.28,4.9,12.55,9.82,18.07,15.62a30,30,0,0,1,8.23,17.2c1.21,8.76,2.06,17.45-.62,27,10.19-4.44,20.06-6.29,28.86-11.84,7.37-4.64,15.62-8.78,25.4-5.14,3.11,1.15,6.61,1.89,9.93,2.84,3,.87,4.59.86,3.28-3.42a38.12,38.12,0,0,1,0-21.33c2.08-7.74,6.37-14.39,10.8-20.88,5.72-8.39,4.64-17.36,2.87-26.37-.6-3.06-2.5-4.21-5.48-1.23-9.14,9.17-16.24,19.8-23,30.6-9.51-11.1-11-26.66-19.8-39.79-4.75,8.64-9.36,16.05-11,25.59-4.45-6.63-8.15-12.49-10.76-19.21-3.41-8.73-4.28-18.12-7.8-26.76-.8-1.95-1.27-4.75-3.28-5-1.47-.2-2.66,2.37-3.87,3.91-3.66,4.66-6.17,10.18-10.42,14.33-1.18-3.26.22-8-3.66-8.92-4.06-.91-6.59-3.22-9.61-5.47-3.27-2.43-6.62-5-10.79-5.88-16.84-12.64-34-24.8-48.73-40.11-4.49-4.68-12.92-3.55-16.15,2.14-6.93,12.19-16.11,23.37-18,38-.37,2.85-1.66,5.6-2.51,8.36,9.75.66,18.46,5,26.61,9.82a115.44,115.44,0,0,1,37.16,34.48c2.25,3.29,4.95,5,9,5.12C331.65,422.48,340.45,423.14,348,428.54ZM333.29,258.15c-6.86,3.24-13.31,4.58-17.17,10.21a127,127,0,0,1-18,20.71,29.34,29.34,0,0,0-6.41,8.24c-3.14,6.28-1.31,12.3,4.74,15.82,1.29.75,2.89,1.34,3.68,2.47,5.84,8.32,14.54,13.68,21.37,20.93,9.38,10,21.64,14.46,34.77,19.64-1.72-11.73,1.91-22.76.06-35-7.3,7.16-13.88,13.46-20.14,20.86-.76-16.46-.48-32,3.7-47.35,2.19-8,4.35-16,7.52-23.71.83-2,2.82-4.81,1-6.38-2.13-1.82-4.56.86-6.42,2.08a87.39,87.39,0,0,1-13,7.5C329.88,268.8,330.48,263.88,333.29,258.15Zm-56.5,258.91c.47-2.29-.94-3.16-1.93-4.2a77.78,77.78,0,0,1-22-50.37c-.79-12.58-6.67-20.51-18.62-24.79-7.07-2.54-14-1.31-17.95,3.18-5.48,6.21-7.69,22.86-3.63,30.31C226.66,496.77,249.2,510.34,276.79,517.06ZM774.91,516c2,0,3.49.1,4.93,0a18.59,18.59,0,0,0,2.87-.73A94.66,94.66,0,0,0,829,487.45c8.54-9.14,14.79-19.2,13.12-32.75-1.28-10.44-7.47-18.44-16-18.47-9.61,0-25.4,9-25.82,23.08A74.14,74.14,0,0,1,799,472.17C795.59,489,788.23,503.62,774.91,516ZM727.58,354.5c6-2.6,10.53-4.83,14.39-8.45s8.2-7.14,13.45-9.31c6.67-2.76,10.76-13.19,7.2-19-5.09-8.36-10.49-16.67-17.77-23.37-8.68-8-17.69-15.58-25.07-24.86-.38-.47-1-1.13-1.45-1.05a1.59,1.59,0,0,0-1.26,1.87,17.66,17.66,0,0,0,1.08,3.22c7.44,17.43,12.1,35.61,11.57,54.54C729.48,336.54,730,345.2,727.58,354.5ZM529.46,114c1.79-4.92,3.09-8.68,4.54-12.38.58-1.48.51-3.86,2.3-4.09s3.13,1.79,4,3.32c3.26,5.71,8.1,6.88,14.09,5.45,3.07-.74,6.19-1.29,9.31-1.79,2-.33,4.2-.87,6.22,1.07l-11,8.21c1.63.08,2.38.14,3.14.16,10.71.25,21.68-2.09,31.94,3.09a4.72,4.72,0,0,0,2.46-.08c4.83-.73,9.65-1.49,15.54-2.41-1.84-.77-2.7-1.21-3.6-1.49-16.66-5.25-33.29-10.57-50-15.62-2.72-.82-5-1.75-6.31-4.28-1.85-3.57-4.06-4.42-7.15-1.32-3.53,3.54-6.72,3.27-9.48-1-.35-.55-1-.91-1.35-1.46-2.31-3.39-4.18-3.6-7-.1-4.61,5.74-5,5.71-10.93,1.82-2.65-1.73-4.15-1.29-5.51,1.23-1.81,3.33-4.84,4.55-8.36,5.55-12.79,3.65-25.5,7.57-38.22,11.47-4.88,1.5-9.69,3.2-14.53,4.81,5.56,1.09,11.09,4.42,16.17,2.45,7.63-3,15.24-2.92,23.06-2.81,3.46.06,7,.7,10.79-.35l-11.26-8.3c6.4-2,11.45.38,16.56,1.28,5.61,1,10.27.3,13.33-5.07a12.53,12.53,0,0,1,1.54-2c1.93-2.26,3.47-3.09,4.65.73C525.72,104.36,527.44,108.5,529.46,114ZM589,126.11c5.19,3.42,10.12,6,14.22,9.52,7.11,6.13,13.62,4.67,21-.75h-14c-.07-.3-.15-.6-.22-.9L626,126c-.14-.41-.28-.81-.41-1.21-8.3,1-16.13,4.41-24.71,4.92l13.92-7.18-.36-1.08Zm-118.61-.17c-9.2-.73-17.25-4.08-26.6-4,4.69,4.15,10.4,4.51,15.06,8.7-9.66-1.37-17.74-5.77-27.8-5.64l18.24,9-.54,1.37H435.14c6.9,3.95,12.84,6.81,19.63,1C459.26,132.54,464.61,129.72,470.34,125.94ZM709.93,354.59c.17,7.37.73,8.17,5.56,7,4.32-1,7.53-4.06,11.07-6.46,1.33-.91.6-2.19-.06-3q-6.06-7.75-12.31-15.36c-.72-.88-1.54-2.54-3.17-1.21a3.22,3.22,0,0,0-1.25,3.23C710.21,344,709.93,349.32,709.93,354.59Z" transform="translate(-145.8 -72.61)"/><path d="M176,571.85c-.43,3.11,2.36,4,4,5.6,2,1.92,4.84,2.74,6.37,5.19-6.58-1.81-11-6.78-15.58-11.21-6-5.81-11.48-12.21-17.16-18.38-.51-.56-1.18-1.19-.8-2.14,4.16,4.17,8.24,8.39,12.5,12.42,1,.91,1.68,3.29,3.87,1.65l-.14-.07c-.73,1.38,0,1.34,1,1.05l-.07-.06c-.13,1.27.12,2,1.54,1.11l.36.07.05.37c-.64,1.25-.32,1.8,1.12,1.52l0-.05c-.59,1.26-.12,1.49,1,1.05l-.05-.05c-.4,1.1-.08,1.48,1.05,1.05l-.05-.05c-.5,1.21.11,1.3,1.06,1Z" transform="translate(-145.8 -72.61)"/><path class="cls-2" d="M691.06,244.38c15.09,20.85,20.26,44.74,22.19,71.25-7.15-6.46-15-8.75-23.09-12.35a194.44,194.44,0,0,1,5,27.48c.88,9.2-.34,18.18-1.88,27.74-5.72-4-10-8.72-15.24-13.74-.07,18.07-3.16,34.59-12.8,50-4.89-7.43-7.67-15.26-11.7-23.39-3.09,7.3-5.95,14-8.79,20.73a114.78,114.78,0,0,1-9,16.68c-1.9,3-3,3.6-5.52.42-4.92-6.3-10.18-12.37-16.92-16.87-7-4.67-9.75-3.78-12,4.27-2.66,9.36-2,18.71.58,28.08,3.38,12.36,7,24.76,3,37.75-2.65,8.57-6.37,16.42-14,21.85-2.18,1.56-3.32,1.91-4.73-1-2.55-5.34-6.84-9.28-11.86-12.91-3.41,9-5,18.39-11.21,26.64-4.06-8-8.16-15.5-14.29-22.09-5.41,8.21-11,15.93-17,23.4-1.94,2.44-3.1,2.55-5.13,0-5.89-7.41-11.46-15-16.82-23.14-5,7.15-11.26,13-14.09,21.93-5.3-6.37-7.13-13.61-9.45-20.58s-2.26-7.05-7.56-1.74a29.36,29.36,0,0,0-6.51,8.79c-1.24,2.86-2.65,2.23-4.52,1a27,27,0,0,1-9.86-11c-5.89-12.08-8.21-24.55-3.44-37.65,2.78-7.65,6.18-15.1,7-23.34a37.22,37.22,0,0,0-2.61-19.06c-1.74-4-4.1-5.14-8.2-2.8-5.89,3.38-10.53,8.09-15,13.05-2.44,2.7-4.76,5.51-7.3,8.46-8.91-10-13.47-22.15-18.86-34.16-5.23,5.09-9.77,10.33-13.1,17a78.46,78.46,0,0,1-12.36-35.74c-.46-4.44.1-9-1.09-13.34l.39,0-.42-.33.11.38c-4.34,1.9-6.54,6.2-10.07,9-1.51,1.2-2.39,3.17-4.7,3.82-3.76-18.32-3.4-36.29,2.94-54.53l-22.66,11.49c.46-27.4,8.36-51.75,22.21-74.37,1.1-.75,1.52-2.34,3.08-2.53.49,8.61.3,17.25,2.13,26.06a17.89,17.89,0,0,0-2.34-.23c-2.14.08-5.06-3.88-6.28.82-1.13,4.35,3.3,2.84,5.09,4.11,1.51,1.08,4.32.37,4.74,2.94,1.36,8.23,4.8,15.94,5.85,24.25.51,4,0,6.22-4.69,4.43-3-1.14-3.88.6-3.92,3.07,0,2.77,2.52,2,3.75,2,5.6.1,6.91,3.07,6.73,8.11a119.73,119.73,0,0,1-3,23.17c5.19-5,7.05-11.08,10.83-15.78a54.24,54.24,0,0,0,2.2,11.64c-2.21.35-5.29-.29-4.45,3.68.62,2.92,3.36.9,4.8,2-.06,7-1.24,14,1.25,21.82,6.23-6.46,9.16-13.58,10.51-21.49a12,12,0,0,1,6.63.41c3.81,8.05,8.47,15.7,9.43,24.91.68,6.46.88,13,1.2,20.51,3.07-4.36,4.39-8.25,5.88-12.05,2.18.18,2.17-1.74,2.67-3,3.57-8.87,3-17.78-.1-26.62-.44-1.27-1.62-2.28.46-3,5.81,4.2,8.33,10.55,10.8,16.87,2.72,7,3.18,14.38,3.7,22.33.84-.24.82-1.08,1.24-1.54,8.32-9.15,8.51-19.74,5.57-30.9l.84-.82,7.44,5.9c1,1.28,2.2,2.48,3.12,3.83,8,11.78,8.51,24.93,6.48,38.34-1.32,8.7-3.22,17.33-5.08,25.94-2.56,11.79,1.41,21.65,8.95,30.33a20.69,20.69,0,0,0,16.33,7.32,81.51,81.51,0,0,0,24.06-3.83,44.59,44.59,0,0,1,26.95.08,81.62,81.62,0,0,0,24.08,3.75c4.87,0,9.41-1.29,13-4.43,9.3-8.26,14.95-18.23,12.69-31.25-1.11-6.38-2.18-12.8-3.74-19.09-4.66-18.71-3.16-36.49,7.41-53,2.85-.84,4.23-4.47,7.8-4.46-3.47,19.1-1.69,27.82,6.93,33.41-1.3-14.84,3.32-27.63,12.44-38.94a6.43,6.43,0,0,1,4.54.15c-3.9,10.51-5.24,21.11-.51,31.77-.18.51-.11.87.53.88l0-.05c.79,4.36,2.85,8.07,5.73,12.94a243.9,243.9,0,0,1,12.26-46.29,6.24,6.24,0,0,1,4.65-.27c1.54,7.84,4.27,15.07,10.5,21.17,2.64-7.45,1.34-14.52,1.17-21.53a10.13,10.13,0,0,0,1.93-.36c1.74-.7,5,1.7,5-2.54s-3.13-2-4.89-2.52a10,10,0,0,0-1.45-.23q1.14-6.43,2.27-12.86c3.78,5.18,6.08,11.37,10.82,16a110,110,0,0,1-2.22-21.84c-.05-9.34,0-9.34,8.79-11.67.48-.13,1-.18,1.47-.29,1.7-.41,1.23-1.68,1.07-2.8s-.43-2.42-2-2.18a26.85,26.85,0,0,0-4.38.93c-3.51,1.14-4-.36-3.19-3.34,1.2-4.31,2.79-8.58,3.42-13,1.07-7.39,3.21-13.38,12-14,1.52-.11,2.28-1.05,1.53-2.8-.61-1.41-.78-3-3-2-.9.41-1.93.54-2.84.92-2.83,1.17-4.27,1.06-3.56-2.74a89.79,89.79,0,0,0,1-22.81C687.89,239.71,688.53,243.14,691.06,244.38Z" transform="translate(-145.8 -72.61)"/><path class="cls-3" d="M267.81,396.06c-1.1-4.3-4.38-5.63-8.28-5.85-7.19-.42-14.92,5-17.41,11.67-3.23,8.68-1.94,17.34.07,25.91.63,2.67,1.87,5.23-.06,7.49-2.12,2.47-5.06,1.25-7.44.36-6.43-2.4-12.21-1.5-17.85,2.28-9.22,6.17-10.07,18.09-7.77,27.33a45.9,45.9,0,0,1,1.19,4.79c.92,6.41-.56,7.93-6.92,7-13.09-1.87-22.82,6.45-23.2,20-.1,3.49.23,7,.34,10.48.07,2,.43,4.48-1.68,5.33-1.9.76-3.94-.64-5.19-2.19-6.61-8.17-11.42-17.16-11.06-28,.45-13.47,7.27-19.82,20.87-19.68,3.79,0,7.68-.56,11.32,1.13.91.42,1.94.94,2.68-.1.51-.72.07-1.56-.27-2.35-2.8-6.35-3.7-13.14-3.9-20-.22-7.06,1-13.87,5.78-19.6s10.91-5.95,17.31-4.56c5.16,1.12,10.17,2.93,15.43,4.5.67-4.2-1-8.35-1-12.63a41,41,0,0,1,4.34-19.15c4-7.82,14.46-10.39,25.11-6.37,19,7.15,34.22,19.35,46,35.47,6.51,8.92,14.3,11.63,24.49,10.08a14,14,0,0,1,9.53,2.26,93.5,93.5,0,0,1,22.65,18.67,17.83,17.83,0,0,1,4.4,8.28c1.72,9.2,2.87,18.39.62,27.7a7,7,0,0,1-3.39,4.63c-.44-4.47-.89-9-2.93-13.05-7.06-13.92-14.32-16.51-26.23-8.36-10.35,7.09-13.91,17.27-11.7,29.53a58.78,58.78,0,0,0,.05,18c-.49,10-2.7,19.47-8.17,28L314,547.08l.11-.06c-11.87,9.22-26,14-40,18.25-11.82,3.62-24.63,4.29-36.88.37-6-1.91-12.08-3.58-17.74-6.57-6.18-3.28-14.24.19-18.74,7.49-2.44-3.28-2.63-7.34-3.92-11-2.35-6.68-1.36-13.75-2.76-20.51,1.43-.08,3,.33,4.1-1,7.25,5.76,14.23,11.91,22.53,16.22,9,4.67,18.22,8.6,28.41,9.77,4-3.8,8.9-3.6,13.85-3.22,8.1.61,15.93-.29,23.15-4.34a26.59,26.59,0,0,0,4.11-2.76c1.95-1.66,1.68-3.49-.76-4-12.08-2.69-21.69-10.52-32.67-15.48-4.19-1.9-5.85-6.1-5.95-9.72-.09-3.12,3.26-.87,4.47,0a88,88,0,0,0,17.33,9.81,164.86,164.86,0,0,0,24.59,8.08,10,10,0,0,0,10.07-2.82c5.76-5.77,9.18-12.43,9.39-20.75.23-9.5.2-19-2.31-28.19-1.08-4-3.95-7.33-4-11.67l-1.53-2.31c.15-5.62.2-11.25.49-16.87.09-1.84-.23-3.5-1.66-4.43-7-4.58-11.17-12-17.67-17.12-1.77-1.38-1.82,0-2.36.9-3.41-5-2.94-10.66-2.83-16.19s-2.21-9.72-5.63-13.78C276,401.29,271.64,399.05,267.81,396.06Z" transform="translate(-145.8 -72.61)"/><path class="cls-3" d="M854.79,534c1.12,1.33,2.67.92,4.1,1-1.1,3.21-.46,6.57-.89,9.82-1,7.48-2.08,15-5.79,21.73-5.48-8.9-11.72-10-21.41-6.2-11.36,4.47-22.8,7.88-35.78,7.32-14.65-.62-26.84-6.87-39.92-11.5-6.06-2.14-11-5.73-16.2-9.17l.11.06L737.47,545c-5.47-8.52-7.68-18-8.17-28a58.78,58.78,0,0,0,.05-18c2.21-12.26-1.47-22.27-11.67-29.57-10-7.16-17.65-5.67-24.27,4.44-3.38,5.18-4.22,11.07-4.92,17-5.66-4.72-4.27-11.47-4.66-17.52-.28-4.24.88-8.58,1.46-12.87.6-4.47,2.84-8.06,5.82-11.38a98.46,98.46,0,0,1,20.82-17,16.76,16.76,0,0,1,11.39-2.63c9.07,1.1,16.57-.85,22.58-9,12-16.37,27.06-29.29,46.48-36.43,4.44-1.64,9-2.64,13.69-1.85,8.45,1.43,13.54,7.62,15.25,16.82,1.42,7.67.57,15.2-.45,23.1,5.39-1.61,10.32-3.32,15.37-4.53,11.56-2.77,19.21,2.37,22.24,13.85,2.57,9.8.75,19.1-1.83,28.46-.38,1.38-2.1,2.73-1,4.12s2.7-.34,4.09-.44c8.86-.66,17.78-2.77,25.36,4.72,6.88,6.79,6,14.91,4.43,22.84-1.28,6.66-4.87,12.66-9,18.14a10.8,10.8,0,0,1-2.87,2.69c-3.65,2.23-5.21,1.47-5.18-2.86,0-6.13.83-12.23-.52-18.37-1.72-7.85-11.83-15.31-19.82-14.26-10,1.33-11.47-1.15-8.33-11.18,2.9-9.26,1.51-21.44-8-27.65a18.25,18.25,0,0,0-16-2.48c-3,.89-6.23,2.81-8.86.13-2.47-2.5-.29-5.49.2-8.39,1.42-8.46,3-17-.37-25.49-2.58-6.57-11.24-12.06-18.28-11.12-3.55.48-6.35,2-7.3,5.77a8.19,8.19,0,0,1-3,2.39c-8.19,5-14.58,11.2-14.09,21.95.23,5.05.29,10.22-2.82,14.7-.63-1.61-1.09-2-2.67-.49-4.35,4.27-8.14,9.51-12.89,12.83-6.54,4.57-6.55,9.94-6,16.33.24,2.93.23,5.89.33,8.83l-1.47,2.34c-.7,6.29-4.41,11.65-5.27,18-1.39,10.27-2.07,20.48.56,30.59,1.47,5.66,5.21,10,9.68,13.57,2.91,2.34,6.31,1.84,9.55.94,14.27-4,28.36-8.37,40.41-17.52,1.22-.93,2.91-2.35,4.45-1s-.31,2.76-.71,4.06c-1.13,3.64-3.36,5.94-7.28,7.39-5.55,2.06-10.1,6.23-15.5,8.86a105.21,105.21,0,0,1-13.85,5.43c-4,1.27-4.39,3.12-.86,5.2,4.79,2.83,9.66,5.94,15.54,6.15a91.83,91.83,0,0,0,12,.06c4.47-.43,8.43.86,12.45,2.33,2.93,2.51,5.7.18,8.34-.54C828.41,554.08,842.18,545,854.79,534Z" transform="translate(-145.8 -72.61)"/><path class="cls-3" d="M509.7,155.3c2.05-1.78,3.57-5.09,6.8-4.07s3.73,4.51,4.26,7.39a37.37,37.37,0,0,1,.55,8.9c-.75,13.13-.2,15,8.18,25.22,6.1-7.52,11-15.26,8-25.81-1-3.59.16-7.59,1.44-11.22,2-5.53,4.06-6,8.55-2.16.86.74,1.63,1.61,2.44,2.41-6.6,9.19-5.12,19.57-1.91,28.81,3.37,9.72,1.66,18.3-1.16,27.16-1.14,3.56-2.05,7-1.77,10.68-.66,4.93,3.81,3.42,5.87,4.18,6.68,2.48,7.84,4.61,5.15,11.15-1.46,3.54-4.23,6.2-6.29,9.55a16,16,0,0,0,1.73.47c1.14.15,1.68-.83,2.5-1.31,6.44-3.72,12.89-3.75,19.31.18,4.49,2.74,4.59,4.57.14,7.5-4.73,3.11-9.91,5.49-14.26,9.2-2.12,1.81-3.85,3.72-2.56,7.08,3.07-1.7,6-3.54,9.16-5a73,73,0,0,1,10.2-4c8.15-2.37,14.87.52,19.17,7.75,1.42,2.39,1.62,3.94-1.73,4.29-10,1.05-19.53,5.92-29.91,3.14-.35-.09-.8.25-1.58.51,1.53,1.45,2.84,2.65,4.1,3.9s1.33,2.25-.52,3c-9.26,3.64-16.89,10-25.15,15.26-7.2,4.61-13.91,4.27-20.94-.37-6.8-4.49-13.28-9.5-20.64-13.13-6.25-3.08-6.23-3.11-.87-8,.17-.16.11-.58.17-.94-4.37-.9-8.66,1.84-12.84.66a135.74,135.74,0,0,0-18.53-4c-3.19-.44-2.87-1.75-1.62-3.93,4.43-7.75,11.27-10.53,19.95-8.06,6.68,1.9,12.56,5.52,18.53,8.93,1.47-3.61-.5-5.45-2.61-7.2-4.26-3.53-9.24-5.93-13.85-8.91s-4.5-5,.37-7.75c6.34-3.62,12.51-4,18.79.27,1.74,1.17,3.24,2.92,5.52,3.22.07.53.25.81.77.34L512,250c.45-1.83-.94-2.69-2-3.73a26.93,26.93,0,0,1-5.55-8.21c-2.86-6.4-1.72-9,4.88-11.28,1.88-.65,3.84-1.07,5.74-1.66a2,2,0,0,0,1.49-2.29c-.21-1-1.38-.5-2.09-.75.55-3.21-.34-6.13-1.35-9.18-2.6-7.83-5.44-15.82-2.7-24.16C514.16,177.44,516.33,166.31,509.7,155.3Z" transform="translate(-145.8 -72.61)"/><path class="cls-2" d="M335.38,364.38c4.17.91,7.52,3.45,10.79,5.88,3,2.25,5.55,4.56,9.61,5.47,3.88.87,2.48,5.66,3.66,8.92,4.25-4.15,6.76-9.67,10.42-14.33,1.21-1.54,2.4-4.11,3.87-3.91,2,.27,2.48,3.07,3.28,5,3.52,8.64,4.39,18,7.8,26.76,2.61,6.72,6.31,12.58,10.76,19.21,1.63-9.54,6.24-16.95,11-25.59,8.81,13.13,10.29,28.69,19.8,39.79,6.79-10.8,13.89-21.43,23-30.6,3-3,4.88-1.83,5.48,1.23,1.77,9,2.85,18-2.87,26.37-4.43,6.49-8.72,13.14-10.8,20.88a38.12,38.12,0,0,0,0,21.33c1.31,4.28-.25,4.29-3.28,3.42-3.32-1-6.82-1.69-9.93-2.84-9.78-3.64-18,.5-25.4,5.14-8.8,5.55-18.67,7.4-28.86,11.84,2.68-9.56,1.83-18.25.62-27a30,30,0,0,0-8.23-17.2c-5.52-5.8-11.79-10.72-18.07-15.62a14.48,14.48,0,0,0,.14-7.39c-1-5.2-2.53-10.29-3.59-15.47-.8-3.88-.19-7.93-1.67-11.78C339.23,384.37,339.69,373.77,335.38,364.38Z" transform="translate(-145.8 -72.61)"/><path class="cls-2" d="M709.9,425.21c-8.37,4.9-15.38,11.46-22.26,18.19a28.46,28.46,0,0,0-8.94,18.43c-.57,6.44-2.3,12.8-.62,20.22-10.46-3.83-21-2.81-31.18-4.62-8.36-1.5-16.44-1.9-24.68,0-3.44.78-5.17.78-3.59-4.06,3.84-11.76,2.43-23.27-3.77-34.12-2.87-5-5.63-10.12-8.35-15.22-3.64-6.83-1.69-13.82-.14-20.64.4-1.76,2.23-3.31,4.85-.86,4.88,4.56,8.31,10.09,11.36,15.78,4.21,7.85,8.92,15.54,10.72,25,9.49-12.77,16-26.43,22.07-40.93,4.91,7.17,4.84,15.2,8,22.27,11.6-8.22,16.94-20.4,20.55-33.58,1.29-4.68,2.14-9.49,3-14.28a4,4,0,0,1,2.55-3.31c.72-.2,1.8,1.56,2.55,2.72,3.88,6,6.75,12.72,13.06,18.25.65-10.79,5.94-17.22,15.84-19.62.67,3.86-.4,7.68-1.14,11.28C717.11,399.3,712.45,412,709.9,425.21Z" transform="translate(-145.8 -72.61)"/><path class="cls-3" d="M335.38,364.38c4.31,9.39,3.85,20,7.51,29.52,1.48,3.85.87,7.9,1.67,11.78,1.06,5.18,2.58,10.27,3.59,15.47a14.48,14.48,0,0,1-.14,7.39c-7.56-5.4-16.36-6.06-25.18-6.33-4.08-.13-6.78-1.83-9-5.12a115.44,115.44,0,0,0-37.16-34.48c-8.15-4.8-16.86-9.16-26.61-9.82.85-2.76,2.14-5.51,2.51-8.36,1.85-14.65,11-25.83,18-38,3.23-5.69,11.66-6.82,16.15-2.14C301.34,339.58,318.54,351.74,335.38,364.38Z" transform="translate(-145.8 -72.61)"/><path class="cls-3" d="M691.06,244.38c-2.53-1.24-3.17-4.67-6.18-5.38l.11.1-.85-1.51c-4.36-17-14.41-30.07-28.7-39.81-5-3.4-9.08-6.92-10-14.6-2.22,5.8-4.88,9.08-10.39,7.31a11,11,0,0,0-1.66-2.41c-9.68-8.28-19.12-16.86-29.66-24.06a56.32,56.32,0,0,0-6.14-3.28c-.7-.36-1.85-1.18-2.22-.45-2.39,4.81-4,.52-5.5-.56-2.8-2-5.29-4.45-7.91-6.71,3.48.27,6.94.55,10.42-.22,2.88-.64,3.64-1.59,1.38-4.09a30,30,0,0,0-18.38-10.17,15,15,0,0,1-10.51-5.93c-5.59-7.35-12.39-9-20.59-4.73a7,7,0,0,1-.94.33c-8.11,3-11,.82-10.89-8.6,2.07.94,4,1.77,5.92,2.7,5,2.43,9.31,2.68,14.26-1.09,6.28-4.78,13.32-3.34,19.58.79,9,6,16.95,13.41,25.39,20.16,3.21,2.56,6.53,4.47,10.8,4.39,10.12-.18,17.09,5.18,20.29,14.08,2.73,7.58,7.52,11.72,14.85,12.36,8.41.74,14,6.71,21.09,9.74a48.3,48.3,0,0,0,12.45,8.69c17.33,13.48,28.44,31.37,36.3,51.51A18.71,18.71,0,0,1,714.86,253c-7.14-3.37-13.39-7.86-20.59-10.4C692.43,241.94,690.58,241,691.06,244.38Z" transform="translate(-145.8 -72.61)"/><path class="cls-3" d="M373.86,238.93c-1.56.19-2,1.78-3.08,2.53-8.78,2.29-16.16,7.6-24.83,11,8.13-22.81,19.37-43.75,36.3-61.39,4.75-2.38,9.39-4.93,13.2-8.74,3.87-1.93,7.82-3.75,10.85-7a3.17,3.17,0,0,1,3-1.34c5.55.84,10-3.63,15.46-3.32,1.44.08,1.34-1.7,1.83-2.68,1.62-3.28,3-6.68,4.78-9.87,4-7.22,9.89-11.61,18.47-11.52,4.58,0,8.28-1.76,11.75-4.65,7.28-6.09,14.61-12.12,22.15-17.88,9.6-7.33,15.18-7.4,25.3-.92,3,1.93,6.1,1.26,9.1.14,2.78-1,5.45-2.38,8.48-3.73.58,3.84-1.31,6.62-2.74,9.49-.93,1.9-2.56,1.17-3.93.71-3.15-1.05-6.27-2.22-9.39-3.38-5.28-2-10-1-13.56,3.31a26.48,26.48,0,0,1-16.73,9.69c-7.43,1.26-12.59,5.72-16.85,12.21a20.79,20.79,0,0,0,14.45.87c-2.76,4-7.24,6.11-10.56,9.5a3.18,3.18,0,0,1-1.67.57c-2.55-5.86-5.38-.66-7.27.25-10,4.84-17.17,13.47-26,20-2.83,2.08-6.17,4-7.45,7.75-5.4,1.38-9-.52-10.74-6.31-1.06,7.51-6.57,10.77-11.85,14.67-12.09,8.92-21.77,19.87-25.79,34.87C376,235.66,375.48,237.58,373.86,238.93Z" transform="translate(-145.8 -72.61)"/><path class="cls-3" d="M333.29,258.15c-2.81,5.73-3.41,10.65-4.25,16a87.39,87.39,0,0,0,13-7.5c1.86-1.22,4.29-3.9,6.42-2.08,1.85,1.57-.14,4.36-1,6.38-3.17,7.7-5.33,15.7-7.52,23.71-4.18,15.31-4.46,30.89-3.7,47.35,6.26-7.4,12.84-13.7,20.14-20.86,1.85,12.23-1.78,23.26-.06,35-13.13-5.18-25.39-9.67-34.77-19.64-6.83-7.25-15.53-12.61-21.37-20.93-.79-1.13-2.39-1.72-3.68-2.47-6.05-3.52-7.88-9.54-4.74-15.82a29.34,29.34,0,0,1,6.41-8.24,127,127,0,0,0,18-20.71C320,262.73,326.43,261.39,333.29,258.15Z" transform="translate(-145.8 -72.61)"/><path class="cls-3" d="M709.9,425.21c2.55-13.22,7.21-25.91,9.9-39.08.74-3.6,1.81-7.42,1.14-11.28,11.86-7,23.51-14.21,32.06-25.45,3.3-4.33,9.27-5.6,14.49-3.64s7.87,5.73,7.64,11.07c-.28,6.72,1.86,12.78,4.19,18.82,1.17,3.06.79,4.73-2.42,6.61a126.73,126.73,0,0,0-28.74,23.25,72,72,0,0,0-8.78,11.25c-2.55,4.15-6.17,5.05-10.47,5.35C722.49,422.56,715.94,422.38,709.9,425.21Z" transform="translate(-145.8 -72.61)"/><path class="cls-2" d="M582,153c2.62,2.26,5.11,4.69,7.91,6.71,1.49,1.08,3.11,5.37,5.5.56.37-.73,1.52.09,2.22.45a56.32,56.32,0,0,1,6.14,3.28c10.54,7.2,20,15.78,29.66,24.06a11,11,0,0,1,1.66,2.41c-3.23,0-7.16-1.59-7.85,3.8-.08.57-1.19,1.12-1.92,1.47-6.8,3.19-13.68,5.9-21.47,5.3a64.91,64.91,0,0,0-25.58,2.83c-6.41,2.13-12.19,8.43-20,2.44.89,2.26,1.84,3.56,2.45,5,2.64,6.23.59,9.42-5.75,11.89-3.77,1.47-6.6-.32-9.85-.63-.28-3.71.63-7.12,1.77-10.68,2.82-8.86,4.53-17.44,1.16-27.16-3.21-9.24-4.69-19.62,1.91-28.81,1.25-.68,2.33,1.84,3.26.48,1.58-2.31-1.07-3.62-1.78-5.4,4.34-2.46,8.36-.42,12.42.91,2.52,7.66,3.95,15.49,3.09,23.57-.45,4.26.25,6.47,5.06,4.15,3.5-1.68,4.06.21,3.52,3.16-.68,3.7-1.38,7.41-2.09,11.18,2.24.75,4.34-.06,6.44-.33a72.11,72.11,0,0,1,19.41-.34c1.73.24,3.59.58,4.52-1s-.52-2.84-1.47-3.94c-4.37-5-7.27-10.6-7.64-17.46a9.35,9.35,0,0,0-3.47-6.54l-2.72,7.43c-5.79-6.8-11.2-13.35-18.43-17.92.63-2.38-1.53-6.67,3.93-5.76l-.09-.07c-.06,1,.67,1,1.34.94Zm23.81,20.26c1.29,6.48,5.51,10.77,5.41,16.69,1.25-.48,2-.73,2.78-1.07,5.56-2.52,5.62-3,1-7.2C612.12,179.17,609.36,176.59,605.76,173.28Z" transform="translate(-145.8 -72.61)"/><path class="cls-2" d="M424.92,190.51c1.28-3.72,4.62-5.67,7.45-7.75,8.81-6.49,16-15.12,26-20,1.89-.91,4.72-6.11,7.27-.25a3.18,3.18,0,0,0,1.67-.57c3.32-3.39,7.8-5.49,10.56-9.5a17.54,17.54,0,0,0,6-3.62c4.69-1.54,6.51.21,5.69,5-7.44,4.42-12.72,11.27-18.75,17.86-1.09-2.93-1.86-5-2.8-7.54a11.67,11.67,0,0,0-1.73,2.55c-2.3,8.43-4.29,16.9-10.34,23.8-2.07,2.37.91,3.26,2.56,3,8.33-1.31,16.56-.5,24.79.73,2.2.33,3.11,0,2.36-2.54-.8-2.69-1.17-5.51-1.72-8.28-.79-3.95.48-5.3,4.35-3.5,3,1.4,4.47.85,4.09-2.93a57.52,57.52,0,0,1,3.25-25A24.7,24.7,0,0,1,508,150.07a11,11,0,0,0-.84,1.18c-.9,1.69-3.81,3-2.38,5.11,1.75,2.57,2.87-2.22,4.89-1.06,6.63,11,4.46,22.14.76,33.44-2.74,8.34.1,16.33,2.7,24.16,1,3,1.9,6,1.35,9.18-2.24,1.42-4.79,1.28-7.25,1.24-7.13-.12-10.09-4.65-7.68-11.44.86-2.43,2.54-4.34,5-7.26-3.43,1.65-5.61,2.74-7.83,3.74a5.28,5.28,0,0,1-5.23-.14c-11.34-6.8-23.74-7.83-36.61-7.16A31.92,31.92,0,0,1,433,194C430.35,191.8,428.56,189.58,424.92,190.51Zm22.92-.73c.68-2.48,1.15-4.58,1.85-6.61.8-2.32,3.17-6,1.85-6.72-2.2-1.24-3.82,2.31-5.58,3.88C439.29,186.28,439.36,186.35,447.84,189.78Z" transform="translate(-145.8 -72.61)"/><path class="cls-2" d="M742.58,474.94l1.47-2.34c11.17-10.19,17.58-23.06,21.25-37.5,3.11-4.48,3.05-9.65,2.82-14.7-.49-10.75,5.9-16.92,14.09-21.95a8.19,8.19,0,0,0,3-2.39c14.05-3.95,21,.84,24,15.26,2.55,12.2-2,21.84-9.4,30.63-14.55,17.37-33.09,28.25-55.25,32.95A11,11,0,0,1,742.58,474.94Zm28.11-19.06c1.32.09,1.81.17,2.3.14a3.57,3.57,0,0,0,1.43-.33,59.09,59.09,0,0,0,25.06-26.79c1.48-3,.08-6.23-1.89-8.85-1.23-1.65-2.6-1.92-3.72.39C787.74,433,779.8,444.48,770.69,455.88Z" transform="translate(-145.8 -72.61)"/><path class="cls-2" d="M267.81,396.06c3.83,3,8.19,5.23,11.43,9.07,3.42,4.06,5.73,8.26,5.63,13.78s-.58,11.23,2.83,16.19a71.9,71.9,0,0,0,21.2,37.52l1.53,2.31c-16.87-2.38-31.5-9.71-44.54-20.38-8.53-7-16.1-14.87-20.57-25.19-4.12-9.54-2.63-18.95,1.8-27.84C250.45,394.81,257.68,393.21,267.81,396.06ZM252.9,426.58a14.8,14.8,0,0,0,.81,2.76,60.75,60.75,0,0,0,23.9,25.87c.92.54,2.21,1.61,3.1.4,1-1.36-.45-2.47-1.22-3.42a177.05,177.05,0,0,1-19.72-30.41c-.6-1.17-.67-3.33-2.8-2.86-1.55.35-2.35,1.81-2.87,3.23S253.31,425,252.9,426.58Z" transform="translate(-145.8 -72.61)"/><path class="cls-2" d="M854.79,534c-12.61,11-26.38,20.05-42.74,24.45-2.64.72-5.41,3-8.34.54,16.85-15.26,23.77-34.86,25.12-57,.71-11.53,15.45-23.25,26.85-21.69,8.31,1.14,13.05,7.57,14.42,17.68,1.77,13.09-3.53,23.22-12,32.36ZM824,548.89c1.72,0,2.65.28,3.27,0,13-6.82,23.9-15.9,31.23-28.92,2.13-3.77.88-7.06-.4-10.47-.46-1.21-1.23-2.51-2.72-2.68-1.79-.19-2,1.54-2.58,2.61a189,189,0,0,1-20.06,29.07Z" transform="translate(-145.8 -72.61)"/><path class="cls-2" d="M677.07,191.43a48.3,48.3,0,0,1-12.45-8.69c4.62-5.11,10.3-9.3,13.46-15.67.53-.08.9-.3.59-.88a6.15,6.15,0,0,0-1.1.37c-5.42,2-10.86,2.92-16.88.33,3.91-3.22,7.95-5.81,10.71-9.73s4.9-7.78,5.66-13.08a54.17,54.17,0,0,1-34.15,16c3.93-3.72,7.79-5.84,10.27-10.1-7.68.91-14.9,1.3-21.95-4.08,13.78-3.75,23.88-13,35.79-19.09a30.51,30.51,0,0,1,23.68-2.17c2.65.81,3.57,2.19,4.24,4.66,5.18,19-.68,35.76-10.12,51.83A42.37,42.37,0,0,1,677.07,191.43Z" transform="translate(-145.8 -72.61)"/><path class="cls-2" d="M249.15,560c-10.19-1.17-19.43-5.1-28.41-9.77-8.3-4.31-15.28-10.46-22.53-16.22-2.68-3.15-5.41-6.27-8-9.46-8-9.67-9.26-20.72-5.95-32.34s14-15.33,25.53-9.11c8.41,4.54,14.52,10.82,14.71,21.35a81.93,81.93,0,0,0,8.88,34.85C237.14,547,243.09,553.71,249.15,560Zm-20.49-11.79c-11.36-12.64-21.33-25.61-29.14-40.13-1.24-2.3-2.79-1.61-3.78,0-2.16,3.64-3.63,7.39-1.27,11.67,6.59,11.91,16.52,20.45,27.69,27.75C223.87,548.68,225.8,549.71,228.66,548.23Z" transform="translate(-145.8 -72.61)"/><path class="cls-2" d="M276.79,517.06c-27.59-6.72-50.13-20.29-64.08-45.87-4.06-7.45-1.85-24.1,3.63-30.31,4-4.49,10.88-5.72,17.95-3.18,12,4.28,17.83,12.21,18.62,24.79a77.78,77.78,0,0,0,22,50.37C275.85,513.9,277.26,514.77,276.79,517.06Zm-50.93-56.58a4.47,4.47,0,0,0-3.61,3.14c-1.55,4.34-2.15,8.67.7,12.85,3.46,5.07,6.88,10.19,11.3,14.47a76.66,76.66,0,0,0,20.24,14.24c1,.49,2.3,1.52,3.16.5,1.2-1.41-.57-2.24-1.27-3.24a10.65,10.65,0,0,0-.84-1.23,188.43,188.43,0,0,1-27.48-38.32C227.55,461.93,227.24,460.65,225.86,460.48Z" transform="translate(-145.8 -72.61)"/><path class="cls-2" d="M774.91,516c13.32-12.37,20.68-27,24.12-43.82a74.14,74.14,0,0,0,1.27-12.86c.42-14.11,16.21-23.1,25.82-23.08,8.52,0,14.71,8,16,18.47,1.67,13.55-4.58,23.61-13.12,32.75a94.66,94.66,0,0,1-46.28,27.78,18.59,18.59,0,0,1-2.87.73C778.4,516.09,776.94,516,774.91,516ZM794,505.64a5.11,5.11,0,0,0,4.55-.45,75,75,0,0,0,32.28-30.09c2.24-3.8,1.23-7.76-.09-11.57a4.16,4.16,0,0,0-3.14-2.95c-2.05-.31-2.18,1.66-2.88,2.86-3.32,5.76-6.72,11.45-10.51,16.93C808.06,489.23,800.81,497.2,794,505.64Z" transform="translate(-145.8 -72.61)"/><path class="cls-2" d="M395.45,182.33c-3.81,3.81-8.45,6.36-13.2,8.74a89.46,89.46,0,0,1-18.39-36.67c-2-8.48-1.24-16.83.73-25.21.8-3.37,2.7-4.6,6-4.69,7.5-.19,14.5,1.74,21.24,4.78,11.95,5.38,23.15,12.43,36.15,15.86-5.45,4.82-9.58,5.66-21.23,4.38,2,4.22,6,6.16,8.73,9.42-12.59-.57-22.94-6.07-32.05-14.42-.08,6.62,3.34,11.52,15.31,21.83-5.2,2.56-10.31,1.63-15.42.37-.62-.61-1.38-1.63-2.17-.86-.57.55.32,1.32,1,1.71C385.6,173.36,390.76,177.63,395.45,182.33Z" transform="translate(-145.8 -72.61)"/><path class="cls-2" d="M323.65,499.06c-2.21-12.26,1.35-22.44,11.7-29.53,11.91-8.15,19.17-5.56,26.23,8.36,2,4,2.49,8.58,2.93,13.05-2.65,17-12.27,30.09-23.38,42.35a93.11,93.11,0,0,1-23.89,19c-2.64,1.47-2.62,1.52-6.13,1.43l3-6.74-.11.06,1.54-2.07c5.47-8.52,7.68-18,8.17-28A126.66,126.66,0,0,0,323.65,499.06Zm-.71,43.69.71.78a39.35,39.35,0,0,0,4.41-3.07,85.78,85.78,0,0,0,23.78-37.36c1.46-4.54.13-8.05-2.27-11.58-.86-1.26-1.86-2.47-3.55-2.39-2.11.09-1.87,1.91-2.27,3.29a200.6,200.6,0,0,1-13.49,35.26C327.75,532.67,325.38,537.72,322.94,542.75Z" transform="translate(-145.8 -72.61)"/><path class="cls-2" d="M688.49,490.94c.7-5.94,1.54-11.83,4.92-17,6.62-10.11,14.27-11.6,24.27-4.44,10.2,7.3,13.88,17.31,11.67,29.57a126.66,126.66,0,0,0-.05,18c.49,10,2.7,19.47,8.17,28l1.54,2.06-.11-.06c0,2.43,3.89,4.72,1.74,6.51s-4.79-1.18-6.92-2.52c-20.63-13-36.07-30.29-43.85-53.78A60.17,60.17,0,0,1,688.49,490.94Zm41.81,53c-.58-1.65-.76-2.41-1.1-3.09-8.14-16-15.8-32.12-20.15-49.63-.75-3-2.83-2.82-4.4-1.06-2.87,3.23-5.17,6.72-3.78,11.62a77.57,77.57,0,0,0,10.59,23C716.37,531.91,721.6,539,730.3,544Z" transform="translate(-145.8 -72.61)"/><path class="cls-3" d="M727.58,354.5c2.45-9.3,1.9-18,2.14-26.45.53-18.93-4.13-37.11-11.57-54.54a17.66,17.66,0,0,1-1.08-3.22,1.59,1.59,0,0,1,1.26-1.87c.4-.08,1.07.58,1.45,1.05,7.38,9.28,16.39,16.89,25.07,24.86,7.28,6.7,12.68,15,17.77,23.37,3.56,5.85-.53,16.28-7.2,19-5.25,2.17-9.46,5.56-13.45,9.31S733.57,351.9,727.58,354.5Z" transform="translate(-145.8 -72.61)"/><path class="cls-3" d="M529.46,114c-2-5.48-3.74-9.62-5.06-13.89-1.18-3.82-2.72-3-4.65-.73a12.53,12.53,0,0,0-1.54,2c-3.06,5.37-7.72,6.06-13.33,5.07-5.11-.9-10.16-3.24-16.56-1.28l11.26,8.3c-3.8,1-7.33.41-10.79.35-7.82-.11-15.43-.16-23.06,2.81-5.08,2-10.61-1.36-16.17-2.45,4.84-1.61,9.65-3.31,14.53-4.81,12.72-3.9,25.43-7.82,38.22-11.47,3.52-1,6.55-2.22,8.36-5.55,1.36-2.52,2.86-3,5.51-1.23,6,3.89,6.32,3.92,10.93-1.82,2.82-3.5,4.69-3.29,7,.1.37.55,1,.91,1.35,1.46,2.76,4.29,5.95,4.56,9.48,1,3.09-3.1,5.3-2.25,7.15,1.32,1.31,2.53,3.59,3.46,6.31,4.28,16.71,5,33.34,10.37,50,15.62.9.28,1.76.72,3.6,1.49-5.89.92-10.71,1.68-15.54,2.41A4.72,4.72,0,0,1,594,117c-10.26-5.18-21.23-2.84-31.94-3.09-.76,0-1.51-.08-3.14-.16l11-8.21c-2-1.94-4.18-1.4-6.22-1.07-3.12.5-6.24,1.05-9.31,1.79-6,1.43-10.83.26-14.09-5.45-.87-1.53-2.08-3.57-4-3.32s-1.72,2.61-2.3,4.09C532.55,105.3,531.25,109.06,529.46,114Z" transform="translate(-145.8 -72.61)"/><path class="cls-2" d="M852.21,566.57c3.71-6.77,4.79-14.25,5.79-21.73.43-3.25-.21-6.61.89-9.82,4-8.32,11.78-11.31,19.79-14,.29.39.5,1,.88,1.14,9.93,3.51,13.28,11.09,13.11,20.93a24.13,24.13,0,0,0,.55,3.93c-2.2,9.68-8.41,16.86-15.34,23.29a81,81,0,0,1-38.52,20.41c-1,.21-2,.22-4,.43a99.41,99.41,0,0,0,15.1-20.09A10.38,10.38,0,0,0,852.21,566.57Zm.6,12.84c13.75-3.61,23.52-12.07,30.41-23.92,1.66-2.84.33-5.87-1.19-8.5-1.26-2.16-2.5-2.13-4,.18-3,4.76-5.93,9.59-9.65,13.88C863.15,567.11,858,573.29,852.81,579.41Z" transform="translate(-145.8 -72.61)"/><path class="cls-2" d="M194.11,535c1.4,6.76.41,13.83,2.76,20.51,1.29,3.68,1.48,7.74,3.92,11,2.15,6.72,6.43,12.16,10.62,17.63,1.69,2.21,3.66,4.21,6,6.9-9.84-.91-17.9-4.66-25.89-8.78-5.61-2.89-10.13-7.32-15.54-10.46l.08.11c.06-.76-.41-1-1.06-1l.05.05a1,1,0,0,0-1.05-1.05l.05.05c0-.64-.29-1.09-1-1.05l0,.05L172,567.45l-.05-.37-.36-.07c-.36-.59-.71-1.17-1.54-1.11l.07.06c0-.73-.22-1.14-1-1.05l.14.07c-3.26-5.92-8.37-10.85-9.43-17.92a53.67,53.67,0,0,0,.6-5.89c-.07-9.81,4.72-16,13.83-19.2C183.27,522.62,189.62,527.41,194.11,535ZM200,579.72c-9.13-10.73-18.49-21.23-25.64-33.44-.89-1.53-2.15-1-2.79,0-1.7,2.65-3.83,5.59-2,8.78C176.39,567.11,186.25,575.71,200,579.72Z" transform="translate(-145.8 -72.61)"/><path class="cls-3" d="M893.22,547.05a24.13,24.13,0,0,1-.55-3.93c.17-9.84-3.18-17.42-13.11-20.93-.38-.14-.59-.75-.88-1.14,3.92-6.65,15.76-7.34,20.25-1.19a20.69,20.69,0,0,1-.87,25.58C896.64,547.19,895.07,547.22,893.22,547.05Z" transform="translate(-145.8 -72.61)"/><path class="cls-3" d="M174.21,522c-9.11,3.16-13.9,9.39-13.83,19.2a53.67,53.67,0,0,1-.6,5.89c-4.84,1-5.89-3-7.28-6-3.43-7.31-4.15-14.45,1.64-21.29C159.51,513.43,171,514.51,174.21,522Z" transform="translate(-145.8 -72.61)"/><path class="cls-2" d="M589,126.11l25.44-4.64.36,1.08-13.92,7.18c8.58-.51,16.41-3.92,24.71-4.92.13.4.27.8.41,1.21l-16.05,8c.07.3.15.6.22.9h14c-7.38,5.42-13.89,6.88-21,.75C599.07,132.1,594.14,129.53,589,126.11Z" transform="translate(-145.8 -72.61)"/><path class="cls-2" d="M470.34,125.94c-5.73,3.78-11.08,6.6-15.57,10.43-6.79,5.81-12.73,2.95-19.63-1H448.7l.54-1.37L431,125c10.06-.13,18.14,4.27,27.8,5.64-4.66-4.19-10.37-4.55-15.06-8.7C453.09,121.86,461.14,125.21,470.34,125.94Z" transform="translate(-145.8 -72.61)"/><path class="cls-3" d="M709.93,354.59c0-5.27.28-10.57-.16-15.81a3.22,3.22,0,0,1,1.25-3.23c1.63-1.33,2.45.33,3.17,1.21q6.27,7.59,12.31,15.36c.66.85,1.39,2.13.06,3-3.54,2.4-6.75,5.44-11.07,6.46C710.66,362.76,710.1,362,709.93,354.59Z" transform="translate(-145.8 -72.61)"/><path class="cls-3" d="M508,150.07A24.7,24.7,0,0,0,495.58,152l-6.06,1.85c.82-4.76-1-6.51-5.69-5,5-6.23,11.83-8.72,19.42-9.5,3.22-.34,7.35-1,8.85,2.52C513.51,145.24,510.56,147.88,508,150.07Z" transform="translate(-145.8 -72.61)"/><path class="cls-3" d="M563.82,152c-4.06-1.33-8.08-3.37-12.42-.91-2.36-2.7-6.32-5.57-4.55-9.14,2-4.12,6.95-2.83,10.86-2.21,6.32,1,12.3,2.82,16.26,8.45-5.46-.91-3.3,3.38-3.93,5.76Z" transform="translate(-145.8 -72.61)"/><path class="cls-3" d="M575.22,149c-.67,0-1.4.09-1.34-.94A1.24,1.24,0,0,1,575.22,149Z" transform="translate(-145.8 -72.61)"/><path class="cls-1" d="M172,567.45l1.12,1.52C171.65,569.25,171.33,568.7,172,567.45Z" transform="translate(-145.8 -72.61)"/><path class="cls-1" d="M424.92,190.51c3.64-.93,5.43,1.29,8.1,3.44a31.92,31.92,0,0,0,21.85,7.11c12.87-.67,25.27.36,36.61,7.16a5.28,5.28,0,0,0,5.23.14c2.22-1,4.4-2.09,7.83-3.74-2.42,2.92-4.1,4.83-5,7.26-2.41,6.79.55,11.32,7.68,11.44,2.46,0,5,.18,7.25-1.24.71.25,1.88-.28,2.09.75a2,2,0,0,1-1.49,2.29c-1.9.59-3.86,1-5.74,1.66-6.6,2.24-7.74,4.88-4.88,11.28a26.93,26.93,0,0,0,5.55,8.21c1,1,2.42,1.9,2,3.73l-.17.15c-2.28-.3-3.78-2.05-5.52-3.22-6.28-4.26-12.45-3.89-18.79-.27-4.87,2.77-5,4.74-.37,7.75s9.59,5.38,13.85,8.91c2.11,1.75,4.08,3.59,2.61,7.2-6-3.41-11.85-7-18.53-8.93-8.68-2.47-15.52.31-19.95,8.06-1.25,2.18-1.57,3.49,1.62,3.93a135.74,135.74,0,0,1,18.53,4c4.18,1.18,8.47-1.56,12.84-.66-.06.36,0,.78-.17.94-5.36,4.91-5.38,4.94.87,8,7.36,3.63,13.84,8.64,20.64,13.13,7,4.64,13.74,5,20.94.37,8.26-5.28,15.89-11.62,25.15-15.26,1.85-.73,1.74-1.77.52-3s-2.57-2.45-4.1-3.9c.78-.26,1.23-.6,1.58-.51,10.38,2.78,19.94-2.09,29.91-3.14,3.35-.35,3.15-1.9,1.73-4.29-4.3-7.23-11-10.12-19.17-7.75a73,73,0,0,0-10.2,4c-3.13,1.47-6.09,3.31-9.16,5-1.29-3.36.44-5.27,2.56-7.08,4.35-3.71,9.53-6.09,14.26-9.2,4.45-2.93,4.35-4.76-.14-7.5-6.42-3.93-12.87-3.9-19.31-.18-.82.48-1.36,1.46-2.5,1.31a16,16,0,0,1-1.73-.47c2.06-3.35,4.83-6,6.29-9.55,2.69-6.54,1.53-8.67-5.15-11.15-2.06-.76-6.53.75-5.87-4.18,3.25.31,6.08,2.1,9.85.63,6.34-2.47,8.39-5.66,5.75-11.89-.61-1.46-1.56-2.76-2.45-5,7.8,6,13.58-.31,20-2.44a64.91,64.91,0,0,1,25.58-2.83c7.79.6,14.67-2.11,21.47-5.3.73-.35,1.84-.9,1.92-1.47.69-5.39,4.62-3.83,7.85-3.8,5.51,1.77,8.17-1.51,10.39-7.31.93,7.68,5,11.2,10,14.6,14.29,9.74,24.34,22.79,28.7,39.81.09.62-.18,1.43.85,1.51l-.11-.1a89.79,89.79,0,0,1-1,22.81c-.71,3.8.73,3.91,3.56,2.74.91-.38,1.94-.51,2.84-.92,2.21-1,2.38.63,3,2,.75,1.75,0,2.69-1.53,2.8-8.79.66-10.93,6.65-12,14-.63,4.41-2.22,8.68-3.42,13-.84,3-.32,4.48,3.19,3.34a26.85,26.85,0,0,1,4.38-.93c1.62-.24,1.88,1,2,2.18s.63,2.39-1.07,2.8c-.49.11-1,.16-1.47.29-8.82,2.33-8.84,2.33-8.79,11.67a110,110,0,0,0,2.22,21.84c-4.74-4.6-7-10.79-10.82-16-.24-3.14-.37-6.3-.78-9.42-.18-1.36,1.69-4-1.08-3.87-2.09.12-5.63-.63-6.26,2.71-1.73,9.06-6.26,16.62-12.52,23.44H663.7a10,10,0,0,1,1.45.23c1.76.56,5-1.79,4.89,2.52s-3.31,1.84-5,2.54a10.13,10.13,0,0,1-1.93.36,50.63,50.63,0,0,0-11.67.36,6.24,6.24,0,0,0-4.65.27c-5-1.25-7.91,1-10.41,5.17A42.11,42.11,0,0,0,630,368.54c0,1.53,1.36,3.71-1.22,4.67l0,.05-.53-.88c-4.73-10.66-3.39-21.26.51-31.77a6.43,6.43,0,0,0-4.54-.15c-7,.15-14,.33-20.93.46a6.25,6.25,0,0,0-3.67,1.34,113.61,113.61,0,0,1-18.3,11.14c-1.52.71-2.72,1.64-2.05,3.4.9,2.36,2.44.63,3.62.24,5-1.67,9-5.27,14.16-6.59-10.57,16.54-12.07,34.32-7.41,53,1.56,6.29,2.63,12.71,3.74,19.09,2.26,13-3.39,23-12.69,31.25-3.55,3.14-8.09,4.4-13,4.43a81.62,81.62,0,0,1-24.08-3.75,44.59,44.59,0,0,0-26.95-.08,81.51,81.51,0,0,1-24.06,3.83,20.69,20.69,0,0,1-16.33-7.32c-7.54-8.68-11.51-18.54-8.95-30.33,1.86-8.61,3.76-17.24,5.08-25.94,2-13.41,1.53-26.56-6.48-38.34-.92-1.35-2.07-2.55-3.12-3.82.23-1.39-2-1.79-1.39-3.36,5.6,2.71,11.12,5.45,16.71,8.05,1.2.56,2.9,2.05,3.89.21s-.65-2.86-2.29-3.64a125.22,125.22,0,0,1-17.08-10.16c-1.35-.93-2.8-2.43-4.21-2.44-8.41-.07-16.8-1.62-25.22-.51-2.08.75-.9,1.76-.46,3,3.11,8.84,3.67,17.75.1,26.62-.5,1.23-.49,3.15-2.67,3a41.42,41.42,0,0,0-6-28.4c-2.58-4.24-5.62-6.19-10.49-5a12,12,0,0,0-6.63-.41l-11.76-.33c-1.44-1.06-4.18,1-4.8-2-.84-4,2.24-3.33,4.45-3.68h20.21c-5.63-6.39-9.85-13.18-12-21.27-1-3.58-5.21-2.39-7.88-2.66-2.5-.25-1.13,2.57-1.18,3.94a39.75,39.75,0,0,1-1.35,8.35c-3.78,4.7-5.64,10.75-10.83,15.78a119.73,119.73,0,0,0,3-23.17c.18-5-1.13-8-6.73-8.11-1.23,0-3.79.77-3.75-2,0-2.47.94-4.21,3.92-3.07,4.68,1.79,5.2-.4,4.69-4.43-1.05-8.31-4.49-16-5.85-24.25-.42-2.57-3.23-1.86-4.74-2.94-1.79-1.27-6.22.24-5.09-4.11,1.22-4.7,4.14-.74,6.28-.82A17.89,17.89,0,0,1,376,265c-1.83-8.81-1.64-17.45-2.13-26.06,1.62-1.35,2.16-3.27,2.68-5.19,4-15,13.7-26,25.79-34.87,5.28-3.9,10.79-7.16,11.85-14.67C416,190,419.52,191.89,424.92,190.51ZM451,335l.27.25L451,335c-5.05-5.87-11.05-10.95-14.77-17.93a2.4,2.4,0,0,0-1.56-1.05c-5.75-1-11.51-2-18.12-3.07,4.44,7.47,8.34,14,12.2,20.57a2.53,2.53,0,0,0,2.43,1.37C437.78,334.83,444.4,335.76,451,335ZM644,312c-5.88-.09-11.37,2.07-17.07,3a3.2,3.2,0,0,0-2.12,1.05c-3.88,7.37-9.76,13.15-15.8,18.84,6.82,0,13.1,0,19.39,0,1.13,0,2.57.31,3.15-1,3.55-7.66,9.65-13.88,12.41-22l.14-.3Zm-6-106.46a16.27,16.27,0,0,0,.22-3.46,6.52,6.52,0,0,0-4.25-5.66c-2.7-1-3.39,1.32-4.74,2.57a33.14,33.14,0,0,1-16,8.66,6.58,6.58,0,0,0-5.11,4c-5.37,10.72-12.23,20.12-24.21,25.33a14.12,14.12,0,0,1,5.51,7.37c.55,1.65-1.65,4,1.42,5,3.24,1.08,5.72,3.31,8.14,5.63.89.84,1.59,2,3.31.77,5.08-3.73,11-4.35,17.1-4a37.7,37.7,0,0,0,16.06-3c14.11-5.65,18.06-14.92,12.67-29.11-.95-2.51-1.77-3-3.58-.94-3.82,4.28-8.86,6.45-14.23,7.8-2.58.65-3.32,1.35-2.75,4.27,1.4,7.16-1.85,13-8,14.59-7,1.78-13.39.15-18.48-5.31l.13-.13a20.48,20.48,0,0,1,2.46-.24c10.09,0,13.08-2.59,14.16-12.58a19.21,19.21,0,0,0,.1-4.48c-.38-3.07.78-3.79,3.84-3.93C630.74,218.24,636.83,213.09,638,205.57ZM470,249c.45-.1,1.31-.27,1.3-.3-.83-4.88,1.3-8.57,5.29-11.77-11.81-5.1-18.59-14.38-24-24.91-1.22-2.39-2.56-3.8-5.41-4.36a31.91,31.91,0,0,1-15.27-8c-2.08-1.89-3.68-4.54-7.08-2.9-3.14,1.51-4,4.24-3.68,7.48.38,6.42,4.48,12.78,11.21,13.33,8.19.68,9.75,4.17,9.81,11.5.07,7.85,4.21,10.75,12.06,10.74,1.46,0,3.08-.82,5.09.45-.82.57-1.22.85-1.62,1.11-6.08,4-12.54,6.72-19.69,3.38-6.63-3.11-6.94-9.16-6-15.45.22-1.48-.36-2-1.73-2.37-6.27-1.77-12.36-4-17.73-7.8-1.42-1-2-.9-2.83.89-4,9.2-1.47,19.1,6.82,24.8a38.39,38.39,0,0,0,22,7c3.32,0,6.66.1,9.95.45,4.1.44,7.77,4.81,11,4.07C463.26,255.43,466,250.82,470,249Zm49.3,171.23-.34-.27c2-6.15,4-12.3,6-18.43,2.32-6.94,3.22-14,1.15-21.1-1.77-6.08-5.2-10.85-11.88-12.87l-2.27,12.17c-4.87-4.88-7-10.75-9.78-17.67-1.49,5.31-3.77,9-2.59,13.27a30.38,30.38,0,0,1,.26,16.77c-2.84,9.72-1.54,18.9,2.24,28,1.34,3.23,2.44,6.55,3.73,9.8.36.9.13,2.43,1.86,2.31.6-2.73.74-5.56,2.47-8.07a25.38,25.38,0,0,1,5.78,7.73c.36.72,1.14,2,1.42,1.71,3.94-4.7,4.66,1.75,7.25,2,1.48-1.7,2.71-5.23,5.53-1.15.51.73,1.44,1.15,2,.22,2.84-4.31,4.37-.68,6.05,1.06,2-1.09,3.62-4.89,4.85-3.71,4.11,3.92,3.51-1,4.56-2.11,1.66-1.78,2.66-4.17,5-5.82.91,2.73,1.74,5.27,2.86,8.64a191.72,191.72,0,0,0,8.75-25.73c.41-1.63-.21-2.88-.78-4.28-3.88-9.49-5.48-19.2-1.94-29.16.89-2.48.06-4.56-.56-6.78-.29-1-.14-2.6-1.73-2.55-1.25,0-1.19,1.44-1.52,2.32a35.28,35.28,0,0,1-8.12,13.3l-2.08-12.48c-1.9,4-6.59,1.2-8.81,4.7-4.13,6.54-6.32,13.13-4.9,20.75,1.34,7.22,3.84,14.11,6,21.1.48,1.55,2,3.15.27,5.41a102.79,102.79,0,0,1-7-7.67c-2.15-2.87-3.52-2.33-5.6.09C525,414.67,522.58,417.91,519.25,420.2Zm43.35-98.51c4.73-1.7,7.87-3.54,11.86-3.9a79.55,79.55,0,0,0,36-12.33c4.42-2.82,1.54-6.16.88-9.26-.82-3.82-3.6-1.92-5.59-1.42-10.76,2.7-20.39,8-30,13.35-2.41,1.34-4.77,2.44-8,1.44,10.84-10.33,23.73-16.84,36.46-23.93-12-7.55-29.35-2.14-34.32,10.39a64.5,64.5,0,0,1-22,28.47c-4.38,3.25-8.78,6.46-13.47,9.91,8,6,15.75,11.44,24.77,14.73,11.13,4.06,24.9-.15,32.66-10.16-11.65,2.9-21.61-.56-31.62-6.9,2.6-1.49,4.44-1.94,6.68-1.05,10.47,4.19,20.3,1.77,30.53-1.88,4.87-1.74,8.16-3.86,10.39-8.15.36-.69.84-1.69.59-2.24-.54-1.15-1.65-.52-2.61-.31-5,1.09-10,2.5-15.14,3.11C581.81,322.63,572.91,324.41,562.6,321.69Zm-65.74-.06c-4.25,2-8.3,1.59-12.25,1.39A139.37,139.37,0,0,1,455,318.61c-1.15-.31-2.63-1.49-3.1.77-.21,1.05,5.51,9.07,6.17,8.7,3.44-1.93,5.49,1.17,8,2.14,9,3.49,18.06,4.52,27.24.93a7.27,7.27,0,0,1,6.5.59c-7.91,6.62-16.86,8.82-30.75,7.67,6.65,8.76,20.24,13.64,30.06,10.48S517.59,341,526,334.33c-3.1-2.25-5.87-4.35-8.73-6.32-11.32-7.8-21.1-17.13-25.76-30.31-3.25-9.18-10-12.69-18.45-14.68-5.76-1.36-11.32-1.32-16.74,2.64,13,7.22,25.88,13.72,36.62,24.15-3.6.73-6.22-.48-8.83-2-9.12-5.19-18.39-10.08-28.57-12.9-2.45-.67-5.35-2.05-6.59,1.81-1.1,3.43-2.61,6.65,1.95,9.38a83.52,83.52,0,0,0,34.22,11.61A28.86,28.86,0,0,1,496.86,321.63ZM416.1,261.1c-1.54,3.34-3.31,6.59-4.53,10-1.12,3.16-1.1,5.82,3.4,6.93a207.76,207.76,0,0,1,20,6.29c5,1.79,9.67,3.62,13.4-2.13.46-.71,1.72-1,2.65-1.29,3.35-1.13,5.57-2.1,3.48-6.75-1.85-4.13-.5-9,1.67-13,1.72-3.21.16-3.72-2.32-4a73.28,73.28,0,0,0-14.44-.62c-8.12.57-16.32,1.58-24.37-.53-5.93-1.56-11-4-13.2-10.74-1.53-4.75-5.07-8.75-5.67-14.5a19,19,0,0,0-7.1,11.13c-1.84,7-2.13,14.13-2,21.32.1,4.32,1.46,7.16,6.28,7.89a40.09,40.09,0,0,1,9,2.89c2.37,1,3.52.31,4.7-1.83C409.38,268,411.87,264,416.1,261.1Zm247.18-30c-1.8,17.39-10.9,25.77-27.86,26-5.48.07-11-.23-16.45-.62A73.48,73.48,0,0,0,606,257c-2.71.28-3.24,1.05-1.89,3.75,2.61,5.2,3.45,10.74,1,16.34-.44,1-.93,1.78.58,2.22a22.3,22.3,0,0,1,10.37,6.52c.93,1,2.14.64,3.27.28,9.34-3,18.67-6,28-8.85,2.51-.77,2.51-2.07,1.76-4.1-1.09-2.95-2-5.95-3.12-9.29,2.45.48,3.38,1.84,4.35,3.17,5.49,7.47,5.5,7.46,14.22,4.71,1.11-.35,2.21-.77,3.34-1,2.63-.57,3.83-2,4-4.83.44-7.51.45-15-1.27-22.34C669.57,238.94,668.17,234.32,663.28,231.07Zm-253.55,57.2a53.09,53.09,0,0,0,3,16.06c.64,1.91,1.61,3.13,3.73,3.43,4.93.71,9.84,1.47,14.73,2.35,2.28.41,3.44-.13,3.56-2.62a29.13,29.13,0,0,1,3.92-13.24c1.61-2.77.25-3.28-1.91-3.95-7-2.15-13.93-4.33-20.85-6.61C409.47,281.56,409.77,280.55,409.73,288.27Zm241.18.06c.2-6.8.2-6.8-6.5-4.67-5.86,1.86-11.74,3.68-17.6,5.54-6.08,1.94-6.07,1.94-3.61,8a42.5,42.5,0,0,1,1.5,4.23c.74,2.68.67,7.07,2.19,7.69,2.33,1,5.72-.66,8.65-1.22,13.34-2.59,14.73-4.23,15.37-18.09C650.93,289.33,650.91,288.83,650.91,288.33ZM534,329c3.28-1.65,2.75-3.89,2.48-6.29-.79-7.06,5.28-13.8,10.64-11.36s6.8-.47,8.19-4.32c1-2.59,1.72-5.25,3-9.11-18.76,11.86-36.83,12-56-.06,1.73,5,2.72,8.44,4.16,11.71,1.1,2.5,3,4,5.94,2.15s5.4-.74,7.8,1.14c3.35,2.61,4.45,6.06,4,10.16-.28,2.3-.79,4.71,2.59,5.84.53-3.4.89-6.69,1.62-9.9.32-1.39-.34-3.89,2.14-3.8,2.08.09,1.48,2.25,1.74,3.6C532.83,322,533.36,325.23,534,329ZM479.13,224.83c-2.37-3.62-2.73-7.6-2.42-11.52.22-2.86-.2-4.25-3.38-4.53-2.92-.25-5.08-.36-6,3.22A13.8,13.8,0,0,0,475,228.06a13.28,13.28,0,0,0,16.92-5.24c1.22-2,3.42-4.25-.12-6.72-3.25-2.26-5.58-2.28-7.73,1.15C482.51,219.74,480.87,222.17,479.13,224.83Zm104.4.49a39.75,39.75,0,0,0-6.51-9.95c-2-2.17-3.58-.72-5.22.32-1.48.95-3.44,1.63-2.48,4.14,1.78,4.68,4.94,7.92,9.85,9A12.91,12.91,0,0,0,593,224a13.08,13.08,0,0,0,2-13.18c-1.27-3.63-4-1.86-6.31-1.87-2.59,0-2.72,1.47-2.57,3.62C586.41,216.75,586.3,220.91,583.53,225.32Zm-7.4,130.24c-5,2.26-9.5,2.12-14.4,1.55,3,10.9,6,21.24,7.25,32.06C574.86,379,575.93,367.87,576.13,355.56Zm-76,.9c-4.71,1.1-8.63,1.56-12.53.33-1.2-.38-2,0-1.94,1.33.23,10.77,1.34,21.35,7.32,32.35C494,378.19,497,367.75,500.13,356.46ZM389,275.35c1.43,9.1,2.7,17.61,4.1,26.1.73,4.44,4.73,3.19,7.2,3.24,2.74,0,.7-2.54.73-3.87a63.21,63.21,0,0,0-.28-10.93c-.55-3.73,4.49-7.76.47-10.64C398.06,277,393.49,276.68,389,275.35Zm106.26,135c-2.42,9.79-1.09,19.44.65,29.09.91,5,4.18,7.46,9.06,6.82,2.76-.37,3.81-1.43,2.45-4.32A276.17,276.17,0,0,1,495.27,410.33Zm72,.06a329,329,0,0,1-12.46,32,2.16,2.16,0,0,0,1.06,3.26c3.35,1.78,9.51-.61,10.28-4.32C568.26,431.12,569.79,420.86,567.26,410.39Zm103-134.86c-3.72,1.12-6.67,2.1-9.68,2.88-2.43.64-3.17,1.77-2.3,4.28a39,39,0,0,1,1.54,16.21c-.1,1.21-1.69,3.51.64,3.58,1.94.06,5.24.55,5.81-2.47C667.78,292.1,668.9,284.12,670.27,275.53ZM569.78,437.42c14.68-2.05,13.59-7.66,7-17a12.67,12.67,0,0,0-5-4.66A74.13,74.13,0,0,1,569.78,437.42Zm-78.95-21.9a33.45,33.45,0,0,0-7.54,8.7c-3.88,6.78-1.72,11.23,5.91,12.74,2.19.44,3.19.08,2.7-2.32C490.68,428.67,490.74,422.61,490.83,415.52Zm60.78-43.47a42.17,42.17,0,0,0,4.73-12.78c.31-1.61,1.79-3.65-.74-4.73-1.38-.59-2.66-2.22-4.52-.89s-2.23,3.24-1.88,5.3C549.85,362.85,550.62,366.74,551.61,372.05ZM510,371.77c1.26-5.48,2.28-9.92,2.12-14.6-.09-2.53-1-4.54-3.62-4.2s-4.45,1.74-3.48,5.19C506.18,362.45,507.16,366.78,510,371.77Zm33.84-6.71c2.28-3.31,2.41-6.68,3.05-9.9.47-2.36-.63-3.52-2.88-3.56s-4.12.52-3.66,3.38C540.84,358.4,541.14,361.93,543.79,365.06Zm-17.48-.22c2.42-2.57,3.08-5.66,3.53-8.77.2-1.37,1-3-.81-4.05a4.76,4.76,0,0,0-4.32-.07c-2.13.82-2,3.11-1.57,4.18C524.15,359,524.18,362.26,526.31,364.84Zm-8.25,0c2.67-3.28,3.06-7,3-10.78-.08-2.75-2.09-2.67-3.88-2.36s-4,1.38-2.95,3.53C515.68,358.27,514.79,362.09,518.06,364.85Zm-6.78,65.65c-1,4.81-.37,8.9-.06,13,.15,2,1.38,3.54,3.58,3.07s1.84-2.25,1.38-4C515.12,438.62,514.2,434.63,511.28,430.5Zm40-.07c-3.12,4.33-3.9,8.4-5,12.3-.48,1.62-.7,3.55,1.64,3.85,1.87.24,3.11-1,3.33-2.88C551.68,439.67,552.27,435.62,551.3,430.43Zm-15.89-65.77c3-3.05,1.12-7.18,2.58-10.59.81-1.89-1.61-2.67-3.28-2.57s-4.39.72-3.58,2.93C532.39,357.84,532.08,362,535.41,364.66ZM527.66,437c-1.62,2.38-1.72,4.73-2.33,6.92-.51,1.82.19,2.93,2,3.06s3.47-.26,3.16-2.59C530.19,441.9,530,439.24,527.66,437Zm14.75-.52c-2.33,2.05-2.88,4.75-3.46,7.45-.36,1.7.41,2.58,2,2.7s3.08-.28,3-2.31C543.87,441.77,544,439.11,542.41,436.52Zm-7.77.61c-2,2.25-2.54,4.89-2.6,7.67,0,2.14,1.52,2.24,3,2.23s2.37-.93,2.07-2.56C536.68,442,536.7,439.25,534.64,437.13Zm-14.75-1.36c-.82,3.47-1.48,5.79-1.88,8.14a2.4,2.4,0,0,0,2.34,3.07c1.77.11,2.63-.93,2.74-2.7C523.28,441.37,522.16,439,519.89,435.77Z" transform="translate(-145.8 -72.61)"/><path class="cls-3" d="M433.26,340.65c8.42-1.11,16.81.44,25.22.51,1.41,0,2.86,1.51,4.21,2.44a125.22,125.22,0,0,0,17.08,10.16c1.64.78,3.31,1.74,2.29,3.64s-2.69.35-3.89-.21c-5.59-2.6-11.11-5.34-16.71-8.05-.58,1.57,1.62,2,1.39,3.36l-7.44-5.91c-.33-.22-.86-.7-.94-.63-.57.47-.29,1,.1,1.45,2.94,11.16,2.75,21.75-5.57,30.9-.42.46-.4,1.3-1.24,1.54-.52-8-1-15.34-3.7-22.33C441.59,351.2,439.07,344.85,433.26,340.65Z" transform="translate(-145.8 -72.61)"/><path class="cls-3" d="M597.06,350.45c-5.13,1.32-9.2,4.92-14.16,6.59-1.18.39-2.72,2.12-3.62-.24-.67-1.76.53-2.69,2.05-3.4a113.61,113.61,0,0,0,18.3-11.14,6.25,6.25,0,0,1,3.67-1.34c7-.13,14-.31,20.93-.46-9.12,11.31-13.74,24.1-12.44,38.94-8.62-5.59-10.4-14.31-6.93-33.41C601.29,346,599.91,349.61,597.06,350.45Z" transform="translate(-145.8 -72.61)"/><path class="cls-3" d="M628.75,373.21c2.58-1,1.27-3.14,1.22-4.67A42.11,42.11,0,0,1,636.33,345c2.5-4.18,5.45-6.42,10.41-5.17a243.9,243.9,0,0,0-12.26,46.29C631.6,381.28,629.54,377.57,628.75,373.21Z" transform="translate(-145.8 -72.61)"/><path class="cls-3" d="M392.78,321.88a39.75,39.75,0,0,0,1.35-8.35c.05-1.37-1.32-4.19,1.18-3.94,2.67.27,6.92-.92,7.88,2.66,2.15,8.09,6.37,14.88,12,21.27H395A54.24,54.24,0,0,1,392.78,321.88Z" transform="translate(-145.8 -72.61)"/><path class="cls-3" d="M663.7,333.58H645.33c6.26-6.82,10.79-14.38,12.52-23.44.63-3.34,4.17-2.59,6.26-2.71,2.77-.15.9,2.51,1.08,3.87.41,3.12.54,6.28.78,9.42Q664.83,327.14,663.7,333.58Z" transform="translate(-145.8 -72.61)"/><path class="cls-3" d="M413.72,339.9c4.87-1.22,7.91.73,10.49,5a41.42,41.42,0,0,1,6,28.4c-1.49,3.8-2.81,7.69-5.88,12.05-.32-7.55-.52-14.05-1.2-20.51C422.19,355.6,417.53,348,413.72,339.9Z" transform="translate(-145.8 -72.61)"/><path class="cls-3" d="M651.39,339.59a50.63,50.63,0,0,1,11.67-.36c.17,7,1.47,14.08-1.17,21.53C655.66,354.66,652.93,347.43,651.39,339.59Z" transform="translate(-145.8 -72.61)"/><path class="cls-3" d="M395.33,339.16l11.76.33c-1.35,7.91-4.28,15-10.51,21.49C394.09,353.21,395.27,346.15,395.33,339.16Z" transform="translate(-145.8 -72.61)"/><path class="cls-1" d="M383.06,346l-.11-.38.42.33-.39,0Z" transform="translate(-145.8 -72.61)"/><path class="cls-3" d="M628.26,372.38l.53.88C628.15,373.25,628.08,372.89,628.26,372.38Z" transform="translate(-145.8 -72.61)"/><path class="cls-1" d="M308.9,472.62a71.9,71.9,0,0,1-21.2-37.52c.54-.94.59-2.28,2.36-.9,6.5,5.08,10.67,12.54,17.67,17.12,1.43.93,1.75,2.59,1.66,4.43C309.1,461.37,309.05,467,308.9,472.62Z" transform="translate(-145.8 -72.61)"/><path class="cls-1" d="M323.65,499.06a126.66,126.66,0,0,1,.05,18A58.78,58.78,0,0,1,323.65,499.06Z" transform="translate(-145.8 -72.61)"/><path class="cls-1" d="M315.53,545,314,547.08Z" transform="translate(-145.8 -72.61)"/><path class="cls-1" d="M765.3,435.1c-3.67,14.44-10.08,27.31-21.25,37.5-.1-2.94-.09-5.9-.33-8.83-.53-6.39-.52-11.76,6-16.33,4.75-3.32,8.54-8.56,12.89-12.83C764.21,433.06,764.67,433.49,765.3,435.1Z" transform="translate(-145.8 -72.61)"/><path class="cls-1" d="M729.3,517a126.66,126.66,0,0,1,.05-18A58.78,58.78,0,0,1,729.3,517Z" transform="translate(-145.8 -72.61)"/><path class="cls-1" d="M739,547.08,737.47,545Z" transform="translate(-145.8 -72.61)"/><path class="cls-1" d="M512,250l.6.49c-.52.47-.7.19-.77-.34Z" transform="translate(-145.8 -72.61)"/><path class="cls-2" d="M685,239.1c-1-.08-.76-.89-.85-1.51Z" transform="translate(-145.8 -72.61)"/><path class="cls-1" d="M563.82,152l6.22,2c7.23,4.57,12.64,11.12,18.43,17.92l2.72-7.43a9.35,9.35,0,0,1,3.47,6.54c.37,6.86,3.27,12.43,7.64,17.46,1,1.1,2.32,2.49,1.47,3.94s-2.79,1.25-4.52,1a72.11,72.11,0,0,0-19.41.34c-2.1.27-4.2,1.08-6.44.33.71-3.77,1.41-7.48,2.09-11.18.54-3,0-4.84-3.52-3.16-4.81,2.32-5.51.11-5.06-4.15C567.77,167.44,566.34,159.61,563.82,152Z" transform="translate(-145.8 -72.61)"/><path class="cls-1" d="M605.76,173.28c3.6,3.31,6.36,5.89,9.16,8.42,4.65,4.19,4.59,4.68-1,7.2-.75.34-1.53.59-2.78,1.07C611.27,184.05,607.05,179.76,605.76,173.28Z" transform="translate(-145.8 -72.61)"/><path class="cls-1" d="M489.52,153.83l6.06-1.85a57.52,57.52,0,0,0-3.25,25c.38,3.78-1.06,4.33-4.09,2.93-3.87-1.8-5.14-.45-4.35,3.5.55,2.77.92,5.59,1.72,8.28.75,2.53-.16,2.87-2.36,2.54-8.23-1.23-16.46-2-24.79-.73-1.65.26-4.63-.63-2.56-3,6.05-6.9,8-15.37,10.34-23.8a11.67,11.67,0,0,1,1.73-2.55c.94,2.55,1.71,4.61,2.8,7.54C476.8,165.1,482.08,158.25,489.52,153.83Z" transform="translate(-145.8 -72.61)"/><path class="cls-1" d="M447.84,189.78c-8.48-3.43-8.55-3.5-1.88-9.45,1.76-1.57,3.38-5.12,5.58-3.88,1.32.75-1.05,4.4-1.85,6.72C449,185.2,448.52,187.3,447.84,189.78Z" transform="translate(-145.8 -72.61)"/><path class="cls-1" d="M770.69,455.88c9.11-11.4,17-22.84,23.18-35.44,1.12-2.31,2.49-2,3.72-.39,2,2.62,3.37,5.81,1.89,8.85a59.09,59.09,0,0,1-25.06,26.79A3.57,3.57,0,0,1,773,456C772.5,456.05,772,456,770.69,455.88Z" transform="translate(-145.8 -72.61)"/><path class="cls-1" d="M252.9,426.58c.41-1.55.69-3,1.2-4.43s1.32-2.88,2.87-3.23c2.13-.47,2.2,1.69,2.8,2.86a177.05,177.05,0,0,0,19.72,30.41c.77.95,2.21,2.06,1.22,3.42-.89,1.21-2.18.14-3.1-.4a60.75,60.75,0,0,1-23.9-25.87A14.8,14.8,0,0,1,252.9,426.58Z" transform="translate(-145.8 -72.61)"/><path class="cls-1" d="M824,548.89l8.74-10.44a189,189,0,0,0,20.06-29.07c.6-1.07.79-2.8,2.58-2.61,1.49.17,2.26,1.47,2.72,2.68,1.28,3.41,2.53,6.7.4,10.47-7.33,13-18.23,22.1-31.23,28.92C826.66,549.17,825.73,548.89,824,548.89Z" transform="translate(-145.8 -72.61)"/><path class="cls-1" d="M677.57,166.56a6.15,6.15,0,0,1,1.1-.37c.31.58-.06.8-.59.88A6.14,6.14,0,0,1,677.57,166.56Z" transform="translate(-145.8 -72.61)"/><path class="cls-1" d="M228.66,548.23c-2.86,1.48-4.79.45-6.5-.66-11.17-7.3-21.1-15.84-27.69-27.75-2.36-4.28-.89-8,1.27-11.67,1-1.66,2.54-2.35,3.78,0C207.33,522.62,217.3,535.59,228.66,548.23Z" transform="translate(-145.8 -72.61)"/><path class="cls-1" d="M225.86,460.48c1.38.17,1.69,1.45,2.2,2.41a188.43,188.43,0,0,0,27.48,38.32,10.65,10.65,0,0,1,.84,1.23c.7,1,2.47,1.83,1.27,3.24-.86,1-2.13,0-3.16-.5a76.66,76.66,0,0,1-20.24-14.24c-4.42-4.28-7.84-9.4-11.3-14.47-2.85-4.18-2.25-8.51-.7-12.85A4.47,4.47,0,0,1,225.86,460.48Z" transform="translate(-145.8 -72.61)"/><path class="cls-1" d="M794,505.64c6.83-8.44,14.08-16.41,20.21-25.27,3.79-5.48,7.19-11.17,10.51-16.93.7-1.2.83-3.17,2.88-2.86a4.16,4.16,0,0,1,3.14,2.95c1.32,3.81,2.33,7.77.09,11.57a75,75,0,0,1-32.28,30.09A5.11,5.11,0,0,1,794,505.64Z" transform="translate(-145.8 -72.61)"/><path class="cls-1" d="M382.12,167.57c-.69-.39-1.58-1.16-1-1.71.79-.77,1.55.25,2.17.86Z" transform="translate(-145.8 -72.61)"/><path class="cls-1" d="M322.94,542.75c2.44-5,4.81-10.08,7.32-15.07a200.6,200.6,0,0,0,13.49-35.26c.4-1.38.16-3.2,2.27-3.29,1.69-.08,2.69,1.13,3.55,2.39,2.4,3.53,3.73,7,2.27,11.58a85.78,85.78,0,0,1-23.78,37.36,39.35,39.35,0,0,1-4.41,3.07Z" transform="translate(-145.8 -72.61)"/><path class="cls-1" d="M730.3,544c-8.7-5-13.93-12.07-18.84-19.2a77.57,77.57,0,0,1-10.59-23c-1.39-4.9.91-8.39,3.78-11.62,1.57-1.76,3.65-1.95,4.4,1.06,4.35,17.51,12,33.67,20.15,49.63C729.54,541.57,729.72,542.33,730.3,544Z" transform="translate(-145.8 -72.61)"/><path class="cls-1" d="M852.81,579.41c5.2-6.12,10.34-12.3,15.61-18.36,3.72-4.29,6.64-9.12,9.65-13.88,1.46-2.31,2.7-2.34,4-.18,1.52,2.63,2.85,5.66,1.19,8.5C876.33,567.34,866.56,575.8,852.81,579.41Z" transform="translate(-145.8 -72.61)"/><path class="cls-1" d="M200,579.72c-13.71-4-23.57-12.61-30.44-24.68-1.82-3.19.31-6.13,2-8.78.64-1,1.9-1.51,2.79,0C181.47,558.49,190.83,569,200,579.72Z" transform="translate(-145.8 -72.61)"/><path class="cls-3" d="M519.25,420.2c3.33-2.29,5.73-5.53,8.31-8.53,2.08-2.42,3.45-3,5.6-.09a102.79,102.79,0,0,0,7,7.67c1.78-2.26.21-3.86-.27-5.41-2.19-7-4.69-13.88-6-21.1-1.42-7.62.77-14.21,4.9-20.75,2.22-3.5,6.91-.67,8.81-4.7l2.08,12.48a35.28,35.28,0,0,0,8.12-13.3c.33-.88.27-2.28,1.52-2.32,1.59,0,1.44,1.52,1.73,2.55.62,2.22,1.45,4.3.56,6.78-3.54,10-1.94,19.67,1.94,29.16.57,1.4,1.19,2.65.78,4.28a191.72,191.72,0,0,1-8.75,25.73c-1.12-3.37-1.95-5.91-2.86-8.64-2.39,1.65-3.39,4-5,5.82-1.05,1.12-.45,6-4.56,2.11-1.23-1.18-2.82,2.62-4.85,3.71-1.68-1.74-3.21-5.37-6.05-1.06-.61.93-1.54.51-2-.22-2.82-4.08-4.05-.55-5.53,1.15-2.59-.23-3.31-6.68-7.25-2-.28.33-1.06-1-1.42-1.71a25.38,25.38,0,0,0-5.78-7.73c-1.73,2.51-1.87,5.34-2.47,8.07-1.73.12-1.5-1.41-1.86-2.31-1.29-3.25-2.39-6.57-3.73-9.8-3.78-9.09-5.08-18.27-2.24-28a30.38,30.38,0,0,0-.26-16.77c-1.18-4.25,1.1-8,2.59-13.27,2.78,6.92,4.91,12.79,9.78,17.67l2.27-12.17c6.68,2,10.11,6.79,11.88,12.87,2.07,7.12,1.17,14.16-1.15,21.1-2,6.13-4,12.28-6,18.43a11.19,11.19,0,0,0-.66,1.11c0,.06.18.24.28.37Z" transform="translate(-145.8 -72.61)"/><path class="cls-2" d="M562.6,321.69c10.31,2.72,19.21.94,28.06-.13,5.1-.61,10.1-2,15.14-3.11,1-.21,2.07-.84,2.61.31.25.55-.23,1.55-.59,2.24-2.23,4.29-5.52,6.41-10.39,8.15-10.23,3.65-20.06,6.07-30.53,1.88-2.24-.89-4.08-.44-6.68,1.05,10,6.34,20,9.8,31.62,6.9-7.76,10-21.53,14.22-32.66,10.16-9-3.29-16.75-8.71-24.77-14.73,4.69-3.45,9.09-6.66,13.47-9.91a64.5,64.5,0,0,0,22-28.47c5-12.53,22.29-17.94,34.32-10.39-12.73,7.09-25.62,13.6-36.46,23.93,3.26,1,5.62-.1,8-1.44,9.6-5.35,19.23-10.65,30-13.35,2-.5,4.77-2.4,5.59,1.42.66,3.1,3.54,6.44-.88,9.26a79.55,79.55,0,0,1-36,12.33C570.47,318.15,567.33,320,562.6,321.69Z" transform="translate(-145.8 -72.61)"/><path class="cls-2" d="M496.86,321.63a28.86,28.86,0,0,0-11.71-3.89,83.52,83.52,0,0,1-34.22-11.61c-4.56-2.73-3.05-5.95-1.95-9.38,1.24-3.86,4.14-2.48,6.59-1.81,10.18,2.82,19.45,7.71,28.57,12.9,2.61,1.49,5.23,2.7,8.83,2-10.74-10.43-23.65-16.93-36.62-24.15,5.42-4,11-4,16.74-2.64,8.44,2,15.2,5.5,18.45,14.68C496.2,310.88,506,320.21,517.3,328c2.86,2,5.63,4.07,8.73,6.32-8.44,6.66-16.95,12.37-26.87,15.56s-23.41-1.72-30.06-10.48c13.89,1.15,22.84-1.05,30.75-7.67a7.27,7.27,0,0,0-6.5-.59c-9.18,3.59-18.21,2.56-27.24-.93-2.51-1-4.56-4.07-8-2.14-.66.37-6.38-7.65-6.17-8.7.47-2.26,1.95-1.08,3.1-.77A139.37,139.37,0,0,0,484.61,323C488.56,323.22,492.61,323.66,496.86,321.63Z" transform="translate(-145.8 -72.61)"/><path class="cls-3" d="M416.1,261.1c-4.23,2.86-6.72,6.89-9,11-1.18,2.14-2.33,2.81-4.7,1.83a40.09,40.09,0,0,0-9-2.89c-4.82-.73-6.18-3.57-6.28-7.89-.17-7.19.12-14.33,2-21.32a19,19,0,0,1,7.1-11.13c.6,5.75,4.14,9.75,5.67,14.5C404,252,409.11,254.41,415,256c8,2.11,16.25,1.1,24.37.53a73.28,73.28,0,0,1,14.44.62c2.48.32,4,.83,2.32,4-2.17,4-3.52,8.89-1.67,13,2.09,4.65-.13,5.62-3.48,6.75-.93.32-2.19.58-2.65,1.29-3.73,5.75-8.42,3.92-13.4,2.13a207.76,207.76,0,0,0-20-6.29c-4.5-1.11-4.52-3.77-3.4-6.93C412.79,267.69,414.56,264.44,416.1,261.1Z" transform="translate(-145.8 -72.61)"/><path class="cls-3" d="M663.28,231.07c4.89,3.25,6.29,7.87,7.39,12.52,1.72,7.35,1.71,14.83,1.27,22.34-.16,2.81-1.36,4.26-4,4.83-1.13.24-2.23.66-3.34,1-8.72,2.75-8.73,2.76-14.22-4.71-1-1.33-1.9-2.69-4.35-3.17,1.11,3.34,2,6.34,3.12,9.29.75,2,.75,3.33-1.76,4.1-9.38,2.85-18.71,5.88-28,8.85-1.13.36-2.34.75-3.27-.28a22.3,22.3,0,0,0-10.37-6.52c-1.51-.44-1-1.22-.58-2.22,2.47-5.6,1.63-11.14-1-16.34-1.35-2.7-.82-3.47,1.89-3.75a73.48,73.48,0,0,1,12.93-.59c5.47.39,11,.69,16.45.62C652.38,256.84,661.48,248.46,663.28,231.07Z" transform="translate(-145.8 -72.61)"/><path class="cls-3" d="M470,249c-4,1.85-6.69,6.46-10.41,7.31-3.24.74-6.91-3.63-11-4.07-3.29-.35-6.63-.43-9.95-.45a38.39,38.39,0,0,1-22-7c-8.29-5.7-10.83-15.6-6.82-24.8.79-1.79,1.41-1.9,2.83-.89,5.37,3.81,11.46,6,17.73,7.8,1.37.39,1.95.89,1.73,2.37-1,6.29-.66,12.34,6,15.45,7.15,3.34,13.61.63,19.69-3.38.4-.26.8-.54,1.62-1.11-2-1.27-3.63-.46-5.09-.45-7.85,0-12-2.89-12.06-10.74-.06-7.33-1.62-10.82-9.81-11.5-6.73-.55-10.83-6.91-11.21-13.33,4.23,7.26,10.42,11.38,18.93,11.54a4,4,0,0,1,3.55,2.15,62.05,62.05,0,0,0,18.68,17.66C467.55,238.78,470,243,470,249Z" transform="translate(-145.8 -72.61)"/><path class="cls-3" d="M601,240c5.09,5.46,11.45,7.09,18.48,5.31,6.2-1.56,9.45-7.43,8-14.59-.57-2.92.17-3.62,2.75-4.27,5.37-1.35,10.41-3.52,14.23-7.8,1.81-2,2.63-1.57,3.58.94,5.39,14.19,1.44,23.46-12.67,29.11a37.7,37.7,0,0,1-16.06,3c-6.06-.3-12,.32-17.1,4-1.72,1.27-2.42.07-3.31-.77-2.42-2.32-4.9-4.55-8.14-5.63-3.07-1-.87-3.38-1.42-5a19.16,19.16,0,0,1,7.5-8.4c7.39-4.9,14.1-10.61,19.15-18,.88-1.28,1.7-2.22,3.53-2.22,8,0,13.86-3.91,18.44-10.14-1.14,7.52-7.23,12.67-16.32,13.11-3.06.14-4.22.86-3.84,3.93a19.21,19.21,0,0,1-.1,4.48c-1.08,10-4.07,12.62-14.16,12.58a20.48,20.48,0,0,0-2.46.24l-.48-.36Z" transform="translate(-145.8 -72.61)"/><path class="cls-2" d="M470,249c0-5.94-2.4-10.19-7.64-13.45a62.05,62.05,0,0,1-18.68-17.66,4,4,0,0,0-3.55-2.15c-8.51-.16-14.7-4.28-18.93-11.54-.3-3.24.54-6,3.68-7.48,3.4-1.64,5,1,7.08,2.9a31.91,31.91,0,0,0,15.27,8c2.85.56,4.19,2,5.41,4.36,5.36,10.53,12.14,19.81,24,24.91-4,3.2-6.12,6.89-5.29,11.77C471.26,248.7,470.4,248.87,470,249Z" transform="translate(-145.8 -72.61)"/><path class="cls-2" d="M638,205.57c-4.58,6.23-10.49,10.13-18.44,10.14-1.83,0-2.65.94-3.53,2.22-5,7.42-11.76,13.13-19.15,18a19.16,19.16,0,0,0-7.5,8.4,14.12,14.12,0,0,0-5.51-7.37c12-5.21,18.84-14.61,24.21-25.33a6.58,6.58,0,0,1,5.11-4,33.14,33.14,0,0,0,16-8.66c1.35-1.25,2-3.62,4.74-2.57a6.52,6.52,0,0,1,4.25,5.66A16.27,16.27,0,0,1,638,205.57Z" transform="translate(-145.8 -72.61)"/><path class="cls-3" d="M409.72,288.27c0-7.72-.25-6.71,6.21-4.58,6.92,2.28,13.88,4.46,20.85,6.61,2.16.67,3.52,1.18,1.91,3.95a29.13,29.13,0,0,0-3.92,13.24c-.12,2.49-1.28,3-3.56,2.62-4.89-.88-9.8-1.64-14.73-2.35-2.12-.3-3.09-1.52-3.73-3.43A53.41,53.41,0,0,1,409.72,288.27Z" transform="translate(-145.8 -72.61)"/><path class="cls-3" d="M650.91,288.33c0,.5,0,1,0,1.49-.64,13.86-2,15.5-15.37,18.09-2.93.56-6.32,2.18-8.65,1.22-1.52-.62-1.45-5-2.19-7.69a42.5,42.5,0,0,0-1.5-4.23c-2.46-6.07-2.47-6.07,3.61-8,5.86-1.86,11.74-3.68,17.6-5.54C651.11,281.53,651.11,281.53,650.91,288.33Z" transform="translate(-145.8 -72.61)"/><path class="cls-3" d="M534,329c-.64-3.73-1.17-7-1.79-10.24-.26-1.35.34-3.51-1.74-3.6-2.48-.09-1.82,2.41-2.14,3.8-.73,3.21-1.09,6.5-1.62,9.9-3.38-1.13-2.87-3.54-2.59-5.84.48-4.1-.62-7.55-4-10.16-2.4-1.88-5-2.89-7.8-1.14s-4.84.35-5.94-2.15c-1.44-3.27-2.43-6.74-4.16-11.71,19.19,12,37.26,11.92,56,.06-1.24,3.86-2,6.52-3,9.11-1.39,3.85-2.76,6.8-8.19,4.32s-11.43,4.3-10.64,11.36C536.75,325.07,537.28,327.31,534,329Z" transform="translate(-145.8 -72.61)"/><path class="cls-3" d="M644,312c-2.76,8.09-8.86,14.31-12.41,22-.58,1.26-2,.94-3.15,1-6.29,0-12.57,0-19.39,0,6-5.69,11.92-11.47,15.8-18.84A3.2,3.2,0,0,1,627,315c5.7-.93,11.19-3.09,17.07-3Z" transform="translate(-145.8 -72.61)"/><path class="cls-3" d="M451,335c-6.63.79-13.25-.14-19.87-.07a2.53,2.53,0,0,1-2.43-1.37c-3.86-6.56-7.76-13.1-12.2-20.57,6.61,1.11,12.37,2.05,18.12,3.07a2.4,2.4,0,0,1,1.56,1.05c3.72,7,9.72,12.06,14.77,17.93Z" transform="translate(-145.8 -72.61)"/><path class="cls-2" d="M479.13,224.83c1.74-2.66,3.38-5.09,4.95-7.58,2.15-3.43,4.48-3.41,7.73-1.15,3.54,2.47,1.34,4.68.12,6.72A13.28,13.28,0,0,1,475,228.06,13.8,13.8,0,0,1,467.33,212c.92-3.58,3.08-3.47,6-3.22,3.18.28,3.6,1.67,3.38,4.53C476.4,217.23,476.76,221.21,479.13,224.83Z" transform="translate(-145.8 -72.61)"/><path class="cls-2" d="M583.53,225.32c2.77-4.41,2.88-8.57,2.58-12.72-.15-2.15,0-3.64,2.57-3.62,2.28,0,5-1.76,6.31,1.87A13.08,13.08,0,0,1,593,224a12.91,12.91,0,0,1-13.79,4.83c-4.91-1.11-8.07-4.35-9.85-9-1-2.51,1-3.19,2.48-4.14,1.64-1,3.23-2.49,5.22-.32A39.75,39.75,0,0,1,583.53,225.32Z" transform="translate(-145.8 -72.61)"/><path class="cls-2" d="M576.13,355.56c-.2,12.31-1.27,23.39-7.15,33.61-1.23-10.82-4.28-21.16-7.25-32.06C566.63,357.68,571.17,357.82,576.13,355.56Z" transform="translate(-145.8 -72.61)"/><path class="cls-2" d="M500.13,356.46c-3.12,11.29-6.1,21.73-7.15,34-6-11-7.09-21.58-7.32-32.35,0-1.33.74-1.71,1.94-1.33C491.5,358,495.42,357.56,500.13,356.46Z" transform="translate(-145.8 -72.61)"/><path class="cls-3" d="M389,275.35c4.48,1.33,9.05,1.64,12.22,3.9,4,2.88-1,6.91-.47,10.64a63.21,63.21,0,0,1,.28,10.93c0,1.33,2,3.91-.73,3.87-2.47-.05-6.47,1.2-7.2-3.24C391.71,293,390.44,284.45,389,275.35Z" transform="translate(-145.8 -72.61)"/><path class="cls-2" d="M495.27,410.33a276.17,276.17,0,0,0,12.16,31.59c1.36,2.89.31,3.95-2.45,4.32-4.88.64-8.15-1.83-9.06-6.82C494.18,429.77,492.85,420.12,495.27,410.33Z" transform="translate(-145.8 -72.61)"/><path class="cls-2" d="M567.26,410.39c2.53,10.47,1,20.73-1.12,30.93-.77,3.71-6.93,6.1-10.28,4.32a2.16,2.16,0,0,1-1.06-3.26A329,329,0,0,0,567.26,410.39Z" transform="translate(-145.8 -72.61)"/><path class="cls-3" d="M670.27,275.53c-1.37,8.59-2.49,16.57-4,24.48-.57,3-3.87,2.53-5.81,2.47-2.33-.07-.74-2.37-.64-3.58a39,39,0,0,0-1.54-16.21c-.87-2.51-.13-3.64,2.3-4.28C663.6,277.63,666.55,276.65,670.27,275.53Z" transform="translate(-145.8 -72.61)"/><path class="cls-3" d="M569.78,437.42a74.13,74.13,0,0,0,2-21.66,12.67,12.67,0,0,1,5,4.66C583.37,429.76,584.46,435.37,569.78,437.42Z" transform="translate(-145.8 -72.61)"/><path class="cls-3" d="M490.83,415.52c-.09,7.09-.15,13.15,1.07,19.12.49,2.4-.51,2.76-2.7,2.32-7.63-1.51-9.79-6-5.91-12.74A33.45,33.45,0,0,1,490.83,415.52Z" transform="translate(-145.8 -72.61)"/><path class="cls-2" d="M551.61,372.05c-1-5.31-1.76-9.2-2.41-13.1-.35-2.06,0-3.95,1.88-5.3s3.14.3,4.52.89c2.53,1.08,1,3.12.74,4.73A42.17,42.17,0,0,1,551.61,372.05Z" transform="translate(-145.8 -72.61)"/><path class="cls-2" d="M510,371.77c-2.79-5-3.77-9.32-5-13.61-1-3.45.94-4.85,3.48-5.19s3.53,1.67,3.62,4.2C512.23,361.85,511.21,366.29,510,371.77Z" transform="translate(-145.8 -72.61)"/><path class="cls-2" d="M543.79,365.06c-2.65-3.13-2.95-6.66-3.49-10.08-.46-2.86,1.47-3.42,3.66-3.38s3.35,1.2,2.88,3.56C546.2,358.38,546.07,361.75,543.79,365.06Z" transform="translate(-145.8 -72.61)"/><path class="cls-2" d="M526.31,364.84c-2.13-2.58-2.16-5.86-3.17-8.71-.38-1.07-.56-3.36,1.57-4.18A4.76,4.76,0,0,1,529,352c1.77,1,1,2.68.81,4.05C529.39,359.18,528.73,362.27,526.31,364.84Z" transform="translate(-145.8 -72.61)"/><path class="cls-2" d="M518.06,364.85c-3.27-2.76-2.38-6.58-3.87-9.61-1.07-2.15,1.11-3.21,2.95-3.53s3.8-.39,3.88,2.36C521.12,357.89,520.73,361.57,518.06,364.85Z" transform="translate(-145.8 -72.61)"/><path class="cls-2" d="M511.28,430.5c2.92,4.13,3.84,8.12,4.9,12.07.46,1.71.87,3.49-1.38,4s-3.43-1-3.58-3.07C510.91,439.4,510.32,435.31,511.28,430.5Z" transform="translate(-145.8 -72.61)"/><path class="cls-2" d="M551.3,430.43c1,5.19.38,9.24-.08,13.27-.22,1.92-1.46,3.12-3.33,2.88-2.34-.3-2.12-2.23-1.64-3.85C547.4,438.83,548.18,434.76,551.3,430.43Z" transform="translate(-145.8 -72.61)"/><path class="cls-2" d="M535.41,364.66c-3.33-2.64-3-6.82-4.28-10.23-.81-2.21,1.82-2.83,3.58-2.93s4.09.68,3.28,2.57C536.53,357.48,538.45,361.61,535.41,364.66Z" transform="translate(-145.8 -72.61)"/><path class="cls-2" d="M527.66,437c2.38,2.2,2.53,4.86,2.87,7.39.31,2.33-1.38,2.72-3.16,2.59s-2.55-1.24-2-3.06C525.94,441.77,526,439.42,527.66,437Z" transform="translate(-145.8 -72.61)"/><path class="cls-2" d="M542.41,436.52c1.62,2.59,1.46,5.25,1.53,7.84.06,2-1.43,2.43-3,2.31s-2.33-1-2-2.7C539.53,441.27,540.08,438.57,542.41,436.52Z" transform="translate(-145.8 -72.61)"/><path class="cls-2" d="M534.64,437.13c2.06,2.12,2,4.82,2.51,7.34.3,1.63-.43,2.55-2.07,2.56s-3.08-.09-3-2.23C532.1,442,532.59,439.38,534.64,437.13Z" transform="translate(-145.8 -72.61)"/><path class="cls-2" d="M519.89,435.77c2.27,3.19,3.39,5.6,3.2,8.51-.11,1.77-1,2.81-2.74,2.7a2.4,2.4,0,0,1-2.34-3.07C518.41,441.56,519.07,439.24,519.89,435.77Z" transform="translate(-145.8 -72.61)"/><path class="cls-3" d="M644,312l.1-.34-.14.3Z" transform="translate(-145.8 -72.61)"/><path class="cls-3" d="M451,335l.32.21L451,335Z" transform="translate(-145.8 -72.61)"/><path class="cls-2" d="M454.57,347.41c-.39-.46-.67-1-.1-1.45.08-.07.61.41.94.63Z" transform="translate(-145.8 -72.61)"/><path class="cls-1" d="M519.25,420.2l-.72,1.21c-.1-.13-.31-.31-.28-.37a11.19,11.19,0,0,1,.66-1.11Z" transform="translate(-145.8 -72.61)"/><path class="cls-1" d="M601,240l-.35-.49.48.36Z" transform="translate(-145.8 -72.61)"/><path class="cls-2" d="M152.84,550.91" transform="translate(-145.8 -72.61)"/><polyline class="cls-1" points="7.04 478.31 8.64 481.18 9.59 482.35"/><line class="cls-4" x1="5.77" y1="475.69" x2="5.77" y2="475.69"/><polygon points="5.11 474.88 7.04 479.37 8.07 477.78 6.2 475.06 5.11 474.88"/><path d="M152,552.37" transform="translate(-145.8 -72.61)"/><line class="cls-4" x1="23.25" y1="492.08" x2="23.25" y2="492.08"/><polygon points="23.18 491.96 26.13 494.47 30.71 499.54 29.64 500.21 22.89 494.17 22.56 492.4 23.18 491.96"/></svg>