<svg width="737" height="476" xmlns="http://www.w3.org/2000/svg">

 <g>
  <title>background</title>
  <rect fill="none" id="canvas_background" height="478" width="739" y="-1" x="-1"/>
 </g>
 <g>
  <title>Layer 1</title>
  <polygon id="svg_1" fill="#C7B299" points="178.56600952148438,453.95001459121704 178.56600952148438,444.3500084877014 178.56600952148438,444.3500084877014 "/>
  <path id="svg_37" fill="#84D10F" d="m509.765987,189.149988c-4.8,-7.2 -11.2,-13.6 -17.6,-18.4l-0.8,0c-10.4,3.2 -20.8,8.8 -29.6,15.2l-4.8,4l-5.6,-4c-9.6,-7.2 -21.6,-12 -33.6,-13.6l-9.6,-1.6l3.2,-8.8c3.2,-9.6 8.8,-17.6 15.2,-24.8c27.2,-27.2 70.4,-28 98.4,-0.8c8.8,8.8 16,20 18.4,32.8l1.6,6.4l-5.6,3.2c-6.4,3.2 -12.8,8 -18.4,12.8l-7.2,5.6l-4,-8z"/>
  <path id="svg_38" fill="#A7E51F" d="m504.165987,170.749988c4.8,4 8.8,8.8 12,14.4l1.6,-1.6c-4,-4.8 -8.8,-8.8 -13.6,-12.8z"/>
  <path id="svg_39" fill="#A7E51F" d="m440.965987,149.149988c11.2,-12 27.2,-18.4 44,-18.4c12,0 24,4 34.4,11.2c-1.6,-15.2 -25.6,-22.4 -41.6,-22.4c-18.4,0.8 -36.8,8 -50.4,20.8c-7.2,9.6 -12.8,20 -17.6,31.2c2.4,0.8 16,7.2 19.2,-4c3.2,-7.2 7.2,-13.6 12,-18.4z"/>
  <path id="svg_40" fill="#50AC25" d="m487.365987,117.949988c-3.2,0 -17.6,0 -18.4,8c24.8,3.2 44.8,21.6 51.2,45.6c-3.2,1.6 -6.4,3.2 -9.6,5.6c-8,9.6 2.4,14.4 4,17.6c9.6,-6.4 20.8,-11.2 31.2,-16c-7.2,-27.2 -30.4,-60.8 -58.4,-60.8z"/>
  <path id="svg_41" fill="#D60606" d="m200.165987,437.149988l5.6,-3.2c35.2,-21.6 94.4,-57.6 133.6,-100c61.6,-67.2 69.6,-114.4 68.8,-148c0,-0.8 0,-1.6 0,-2.4l0,-11.2l9.6,1.6c11.2,2.4 31.2,7.2 36.8,17.6l0.8,0.8l0.8,0c8.8,-7.2 19.2,-13.6 30.4,-18.4l4,-1.6l3.2,3.2c8,6.4 14.4,14.4 18.4,24l0.8,0.8l0,0l0.8,0c6.4,-6.4 12.8,-12 20,-16.8l14.4,-8.8l-0.8,16c-2.4,60 -51.2,131.2 -128.8,192c-68.8,53.6 -163.2,66.4 -213.6,68.8l-4.8,-14.4z"/>
  <path id="svg_42" fill="#BA0808" d="m517.765987,197.149988c-3.2,3.2 -4,7.2 -3.2,12c-16.8,47.2 -58.4,98.4 -116.8,144c-43.2,34.4 -96.8,51.2 -143.2,60c-23.2,0.8 -38.4,12.8 -51.2,20c-1.6,1.6 -20,18.4 -22.4,19.2c52.8,-2.4 172.8,-14.4 239.2,-65.6c76.8,-59.2 124.8,-145.6 128,-203.2c-6.4,4.8 -25.6,8.8 -30.4,13.6z"/>
  <path id="svg_43" fill="#E82525" d="m231.365987,440.349988c36,-21.6 95.2,-57.6 136,-101.6c61.6,-67.2 70.4,-115.2 70.4,-150.4c6.4,-13.6 -21.6,-16.8 -28.8,-18.4c0,0.8 -4.8,19.2 -4.8,20c0.8,35.2 -4,74.4 -68,144c-40,44 -95.2,74.4 -130.4,96c-1.6,1.6 -31.2,24 -32.8,24.8c7.2,0 48,-3.2 56,-13.6l2.4,-0.8z"/>
  <path id="svg_44" fill="#1C1211" d="m553.765987,27.549988c4.8,-1.6 7.2,-7.2 4.8,-12s-6.4,-7.2 -11.2,-4.8l0,0c-56,22.4 -69.6,75.2 -72.8,96c-20.8,0.8 -40,9.6 -54.4,24c-14.4,15.2 -23.2,35.2 -22.4,56c0.8,32 -6.4,76.8 -66.4,140.8c-37.6,41.6 -96,76.8 -130.4,97.6c-30.4,18.4 -36,21.6 -33.6,30.4c1.6,4.8 6.4,8 11.2,7.2c46.4,0 162.4,-7.2 245.6,-72c84,-65.6 132.8,-140.8 132.8,-205.6c0,-4 0,-7.2 -0.8,-11.2l0,0l0,0c-4.8,-33.6 -29.6,-60 -63.2,-66.4c3.2,-17.6 15.2,-61.6 60.8,-80zm-140.8,349.6c-66.4,51.2 -156,64 -208.8,67.2l5.6,-3.2c35.2,-21.6 95.2,-57.6 136,-101.6c64,-69.6 71.2,-118.4 71.2,-153.6c0,-0.8 0,-2.4 0,-3.2c13.6,2.4 28,8 31.2,13.6c2.4,4.8 8,6.4 12,4c0.8,0 1.6,-0.8 1.6,-0.8c8,-7.2 17.6,-12.8 28,-16.8c7.2,5.6 12,12 15.2,20c0.8,3.2 3.2,5.6 6.4,6.4c0.8,0 1.6,0 2.4,0c2.4,0 4.8,-0.8 6.4,-3.2c5.6,-5.6 12,-11.2 18.4,-15.2c-2.4,57.6 -48.8,126.4 -125.6,186.4zm124,-206.4c-7.2,4 -14.4,8.8 -20.8,13.6c-5.6,-8 -12,-15.2 -20,-20.8c-2.4,-1.6 -4.8,-1.6 -7.2,-1.6c-11.2,3.2 -22.4,8.8 -32,16c-11.2,-8 -24,-12.8 -36.8,-14.4c3.2,-8 7.2,-15.2 13.6,-21.6c24,-24 62.4,-24.8 86.4,-0.8c8,8.8 14.4,18.4 16.8,29.6z"/>
  <polygon id="svg_89" fill="#C7B299" points="15.753366470336914,446.1035966873169 15.753366470336914,436.50359058380127 15.753366470336914,436.50359058380127 "/>
  <path id="svg_90" fill="#84D10F" d="m346.953359,181.303597c-4.8,-7.2 -11.2,-13.6 -17.6,-18.4l-0.8,0c-10.4,3.2 -20.8,8.8 -29.6,15.2l-4.8,4l-5.6,-4c-9.6,-7.2 -21.6,-12 -33.6,-13.6l-9.6,-1.6l3.2,-8.8c3.2,-9.6 8.8,-17.6 15.2,-24.8c27.2,-27.2 70.4,-28 98.4,-0.8c8.8,8.8 16,20 18.4,32.8l1.6,6.4l-5.6,3.2c-6.4,3.2 -12.8,8 -18.4,12.8l-7.2,5.6l-4,-8z"/>
  <path id="svg_91" fill="#A7E51F" d="m341.353359,162.903597c4.8,4 8.8,8.8 12,14.4l1.6,-1.6c-4,-4.8 -8.8,-8.8 -13.6,-12.8z"/>
  <path id="svg_92" fill="#A7E51F" d="m278.153359,141.303597c11.2,-12 27.2,-18.4 44,-18.4c12,0 24,4 34.4,11.2c-1.6,-15.2 -25.6,-22.4 -41.6,-22.4c-18.4,0.8 -36.8,8 -50.4,20.8c-7.2,9.6 -12.8,20 -17.6,31.2c2.4,0.8 16,7.2 19.2,-4c3.2,-7.2 7.2,-13.6 12,-18.4z"/>
  <path id="svg_93" fill="#50AC25" d="m324.553359,110.103597c-3.2,0 -17.6,0 -18.4,8c24.8,3.2 44.8,21.6 51.2,45.6c-3.2,1.6 -6.4,3.2 -9.6,5.6c-8,9.6 2.4,14.4 4,17.6c9.6,-6.4 20.8,-11.2 31.2,-16c-7.2,-27.2 -30.4,-60.8 -58.4,-60.8z"/>
  <path id="svg_94" fill="#D60606" d="m37.353359,429.303597l5.6,-3.2c35.2,-21.6 94.4,-57.6 133.6,-100c61.6,-67.2 69.6,-114.4 68.8,-148c0,-0.8 0,-1.6 0,-2.4l0,-11.2l9.6,1.6c11.2,2.4 31.2,7.2 36.8,17.6l0.8,0.8l0.8,0c8.8,-7.2 19.2,-13.6 30.4,-18.4l4,-1.6l3.2,3.2c8,6.4 14.4,14.4 18.4,24l0.8,0.8l0,0l0.8,0c6.4,-6.4 12.8,-12 20,-16.8l14.4,-8.8l-0.8,16c-2.4,60 -51.2,131.2 -128.8,192c-68.8,53.6 -163.2,66.4 -213.6,68.8l-4.8,-14.4z"/>
  <path id="svg_95" fill="#BA0808" d="m354.953359,189.303597c-3.2,3.2 -4,7.2 -3.2,12c-16.8,47.2 -58.4,98.4 -116.8,144c-43.2,34.4 -96.8,51.2 -143.2,60c-23.2,0.8 -38.4,12.8 -51.2,20c-1.6,1.6 -20,18.4 -22.4,19.2c52.8,-2.4 172.8,-14.4 239.2,-65.6c76.8,-59.2 124.8,-145.6 128,-203.2c-6.4,4.8 -25.6,8.8 -30.4,13.6z"/>
  <path id="svg_96" fill="#E82525" d="m68.553359,432.503597c36,-21.6 95.2,-57.6 136,-101.6c61.6,-67.2 70.4,-115.2 70.4,-150.4c6.4,-13.6 -21.6,-16.8 -28.8,-18.4c0,0.8 -4.8,19.2 -4.8,20c0.8,35.2 -4,74.4 -68,144c-40,44 -95.2,74.4 -130.4,96c-1.6,1.6 -31.2,24 -32.8,24.8c7.2,0 48,-3.2 56,-13.6l2.4,-0.8z"/>
  <path id="svg_97" fill="#1C1211" d="m390.953359,19.703597c4.8,-1.6 7.2,-7.2 4.8,-12s-6.4,-7.2 -11.2,-4.8l0,0c-56,22.4 -69.6,75.2 -72.8,96c-20.8,0.8 -40,9.6 -54.4,24c-14.4,15.2 -23.2,35.2 -22.4,56c0.8,32 -6.4,76.8 -66.4,140.8c-37.6,41.6 -96,76.8 -130.4,97.6c-30.4,18.4 -36,21.6 -33.6,30.4c1.6,4.8 6.4,8 11.2,7.2c46.4,0 162.4,-7.2 245.6,-72c84,-65.6 132.8,-140.8 132.8,-205.6c0,-4 0,-7.2 -0.8,-11.2l0,0l0,0c-4.8,-33.6 -29.6,-60 -63.2,-66.4c3.2,-17.6 15.2,-61.6 60.8,-80zm-140.8,349.6c-66.4,51.2 -156,64 -208.8,67.2l5.6,-3.2c35.2,-21.6 95.2,-57.6 136,-101.6c64,-69.6 71.2,-118.4 71.2,-153.6c0,-0.8 0,-2.4 0,-3.2c13.6,2.4 28,8 31.2,13.6c2.4,4.8 8,6.4 12,4c0.8,0 1.6,-0.8 1.6,-0.8c8,-7.2 17.6,-12.8 28,-16.8c7.2,5.6 12,12 15.2,20c0.8,3.2 3.2,5.6 6.4,6.4c0.8,0 1.6,0 2.4,0c2.4,0 4.8,-0.8 6.4,-3.2c5.6,-5.6 12,-11.2 18.4,-15.2c-2.4,57.6 -48.8,126.4 -125.6,186.4zm124,-206.4c-7.2,4 -14.4,8.8 -20.8,13.6c-5.6,-8 -12,-15.2 -20,-20.8c-2.4,-1.6 -4.8,-1.6 -7.2,-1.6c-11.2,3.2 -22.4,8.8 -32,16c-11.2,-8 -24,-12.8 -36.8,-14.4c3.2,-8 7.2,-15.2 13.6,-21.6c24,-24 62.4,-24.8 86.4,-0.8c8,8.8 14.4,18.4 16.8,29.6z"/>
  <polygon id="svg_98" fill="#C7B299" points="447.3048973083496,446.7574853897095 447.3048973083496,437.15747928619385 447.3048973083496,437.15747928619385 "/>
  <path id="svg_99" fill="#84D10F" d="m671.270875,195.688648c-4.8,-7.2 -11.2,-13.6 -17.6,-18.4l-0.8,0c-10.4,3.2 -20.8,8.8 -29.6,15.2l-4.8,4l-5.6,-4c-9.6,-7.2 -21.6,-12 -33.6,-13.6l-9.6,-1.6l3.2,-8.8c3.2,-9.6 8.8,-17.6 15.2,-24.8c27.2,-27.2 70.4,-28 98.4,-0.8c8.8,8.8 16,20 18.4,32.8l1.6,6.4l-5.6,3.2c-6.4,3.2 -12.8,8 -18.4,12.8l-7.2,5.6l-4,-8z"/>
  <path id="svg_100" fill="#A7E51F" d="m665.670875,177.288648c4.8,4 8.8,8.8 12,14.4l1.6,-1.6c-4,-4.8 -8.8,-8.8 -13.6,-12.8z"/>
  <path id="svg_101" fill="#A7E51F" d="m602.470875,155.688648c11.2,-12 27.2,-18.4 44,-18.4c12,0 24,4 34.4,11.2c-1.6,-15.2 -25.6,-22.4 -41.6,-22.4c-18.4,0.8 -36.8,8 -50.4,20.8c-7.2,9.6 -12.8,20 -17.6,31.2c2.4,0.8 16,7.2 19.2,-4c3.2,-7.2 7.2,-13.6 12,-18.4z"/>
  <path id="svg_102" fill="#50AC25" d="m648.870875,124.488648c-3.2,0 -17.6,0 -18.4,8c24.8,3.2 44.8,21.6 51.2,45.6c-3.2,1.6 -6.4,3.2 -9.6,5.6c-8,9.6 2.4,14.4 4,17.6c9.6,-6.4 20.8,-11.2 31.2,-16c-7.2,-27.2 -30.4,-60.8 -58.4,-60.8z"/>
  <path id="svg_103" fill="#D60606" d="m361.670875,443.688648l5.6,-3.2c35.2,-21.6 94.4,-57.6 133.6,-100c61.6,-67.2 69.6,-114.4 68.8,-148c0,-0.8 0,-1.6 0,-2.4l0,-11.2l9.6,1.6c11.2,2.4 31.2,7.2 36.8,17.6l0.8,0.8l0.8,0c8.8,-7.2 19.2,-13.6 30.4,-18.4l4,-1.6l3.2,3.2c8,6.4 14.4,14.4 18.4,24l0.8,0.8l0,0l0.8,0c6.4,-6.4 12.8,-12 20,-16.8l14.4,-8.8l-0.8,16c-2.4,60 -51.2,131.2 -128.8,192c-68.8,53.6 -163.2,66.4 -213.6,68.8l-4.8,-14.4z"/>
  <path id="svg_104" fill="#BA0808" d="m679.270875,203.688648c-3.2,3.2 -4,7.2 -3.2,12c-16.8,47.2 -58.4,98.4 -116.8,144c-43.2,34.4 -96.8,51.2 -143.2,60c-23.2,0.8 -38.4,12.8 -51.2,20c-1.6,1.6 -20,18.4 -22.4,19.2c52.8,-2.4 172.8,-14.4 239.2,-65.6c76.8,-59.2 124.8,-145.6 128,-203.2c-6.4,4.8 -25.6,8.8 -30.4,13.6z"/>
  <path id="svg_105" fill="#E82525" d="m392.870875,446.888648c36,-21.6 95.2,-57.6 136,-101.6c61.6,-67.2 70.4,-115.2 70.4,-150.4c6.4,-13.6 -21.6,-16.8 -28.8,-18.4c0,0.8 -4.8,19.2 -4.8,20c0.8,35.2 -4,74.4 -68,144c-40,44 -95.2,74.4 -130.4,96c-1.6,1.6 -31.2,24 -32.8,24.8c7.2,0 48,-3.2 56,-13.6l2.4,-0.8z"/>
  <path id="svg_106" fill="#1C1211" d="m715.270875,34.088648c4.8,-1.6 7.2,-7.2 4.8,-12s-6.4,-7.2 -11.2,-4.8l0,0c-56,22.4 -69.6,75.2 -72.8,96c-20.8,0.8 -40,9.6 -54.4,24c-14.4,15.2 -23.2,35.2 -22.4,56c0.8,32 -6.4,76.8 -66.4,140.8c-37.6,41.6 -96,76.8 -130.4,97.6c-30.4,18.4 -36,21.6 -33.6,30.4c1.6,4.8 6.4,8 11.2,7.2c46.4,0 162.4,-7.2 245.6,-72c84,-65.6 132.8,-140.8 132.8,-205.6c0,-4 0,-7.2 -0.8,-11.2l0,0l0,0c-4.8,-33.6 -29.6,-60 -63.2,-66.4c3.2,-17.6 15.2,-61.6 60.8,-80zm-140.8,349.6c-66.4,51.2 -156,64 -208.8,67.2l5.6,-3.2c35.2,-21.6 95.2,-57.6 136,-101.6c64,-69.6 71.2,-118.4 71.2,-153.6c0,-0.8 0,-2.4 0,-3.2c13.6,2.4 28,8 31.2,13.6c2.4,4.8 8,6.4 12,4c0.8,0 1.6,-0.8 1.6,-0.8c8,-7.2 17.6,-12.8 28,-16.8c7.2,5.6 12,12 15.2,20c0.8,3.2 3.2,5.6 6.4,6.4c0.8,0 1.6,0 2.4,0c2.4,0 4.8,-0.8 6.4,-3.2c5.6,-5.6 12,-11.2 18.4,-15.2c-2.4,57.6 -48.8,126.4 -125.6,186.4zm124,-206.4c-7.2,4 -14.4,8.8 -20.8,13.6c-5.6,-8 -12,-15.2 -20,-20.8c-2.4,-1.6 -4.8,-1.6 -7.2,-1.6c-11.2,3.2 -22.4,8.8 -32,16c-11.2,-8 -24,-12.8 -36.8,-14.4c3.2,-8 7.2,-15.2 13.6,-21.6c24,-24 62.4,-24.8 86.4,-0.8c8,8.8 14.4,18.4 16.8,29.6z"/>
 </g>
</svg>